SplineFontDB: 3.0
FontName: Monda-Regular
FullName: Monda Regular
FamilyName: Monda-Regular
Weight: Regular
Copyright: Digitized data Copyright (c) 2011-2013, vernon adams.
Version: 2.0
ItalicAngle: 0
UnderlinePosition: 0
UnderlineWidth: 0
Ascent: 800
Descent: 200
UFOAscent: 991.211
UFODescent: -329.59
LayerCount: 2
Layer: 0 0 "Back"  1
Layer: 1 0 "Fore"  0
OS2Version: 0
OS2_WeightWidthSlopeOnly: 0
OS2_UseTypoMetrics: 0
CreationTime: 1397592996
ModificationTime: 1397593040
PfmFamily: 0
TTFWeight: 400
TTFWidth: 5
LineGap: 0
VLineGap: 0
OS2TypoAscent: 0
OS2TypoAOffset: 1
OS2TypoDescent: 0
OS2TypoDOffset: 1
OS2TypoLinegap: 0
OS2WinAscent: 0
OS2WinAOffset: 1
OS2WinDescent: 0
OS2WinDOffset: 1
HheadAscent: 0
HheadAOffset: 1
HheadDescent: 0
HheadDOffset: 1
OS2Vendor: 'NeWT'
Lookup: 6 0 0 "'locl' Localized Forms in Latin lookup 0"  {"'locl' Localized Forms in Latin lookup 0 contextual 0"  "'locl' Localized Forms in Latin lookup 0 contextual 1"  } ['locl' ('latn' <'CAT ' 'dflt' > ) ]
Lookup: 4 0 0 "Ligature Substitution lookup 1"  {"Ligature Substitution lookup 1 subtable"  } []
Lookup: 4 0 0 "Ligature Substitution lookup 2"  {"Ligature Substitution lookup 2 subtable"  } []
Lookup: 1 0 0 "'locl' Localized Forms in Latin lookup 3"  {"'locl' Localized Forms in Latin lookup 3 subtable"  } ['locl' ('latn' <'ROM ' 'dflt' > ) ]
Lookup: 1 0 0 "'locl' Localized Forms in Latin lookup 4"  {"'locl' Localized Forms in Latin lookup 4 subtable"  } ['locl' ('latn' <'MOL ' 'dflt' > ) ]
Lookup: 1 0 0 "'locl' Localized Forms in Latin lookup 5"  {"'locl' Localized Forms in Latin lookup 5 subtable"  } ['locl' ('latn' <'KAZ ' 'dflt' > ) ]
Lookup: 1 0 0 "'locl' Localized Forms in Latin lookup 6"  {"'locl' Localized Forms in Latin lookup 6 subtable"  } ['locl' ('latn' <'TAT ' 'dflt' > ) ]
Lookup: 1 0 0 "'locl' Localized Forms in Latin lookup 7"  {"'locl' Localized Forms in Latin lookup 7 subtable"  } ['locl' ('latn' <'TRK ' 'dflt' > ) ]

StartChar: A
Encoding: 65 65 1
Width: 697
VWidth: 0
Flags: HW
PickledData: "(dp1
S'org.robofab.postScriptHintData'
p2
(dp3
s."
AnchorPoint: "ogonek" 627 0 basechar 0
AnchorPoint: "top" 350 706 basechar 0
LayerCount: 2
Fore
SplineSet
42 0 m 257
 144 0 l 257
 192 138 l 257
 507 138 l 257
 555 0 l 257
 655 0 l 257
 392 706 l 257
 305 706 l 257
 42 0 l 257
216 208 m 257
 351 594 l 257
 485 208 l 257
 216 208 l 257
EndSplineSet
EndChar

StartChar: AE
Encoding: 198 198 2
Width: 823
VWidth: 0
Flags: HW
PickledData: "(dp1
S'org.robofab.postScriptHintData'
p2
(dp3
s."
AnchorPoint: "top" 497 706 basechar 0
LayerCount: 2
Fore
SplineSet
48 1 m 257
 147 0 l 257
 183 138 l 257
 427 138 l 257
 427 0 l 257
 761 0 l 257
 761 73 l 257
 520 73 l 257
 520 324 l 257
 727 324 l 257
 727 397 l 257
 520 397 l 257
 520 633 l 257
 757 633 l 257
 757 706 l 257
 240 706 l 257
 48 1 l 257
201 204 m 257
 309 633 l 257
 427 633 l 257
 427 204 l 257
 201 204 l 257
EndSplineSet
EndChar

StartChar: B
Encoding: 66 66 19
Width: 693
VWidth: 0
Flags: HW
PickledData: "(dp1
S'org.robofab.postScriptHintData'
p2
(dp3
s."
AnchorPoint: "top" 340 706 basechar 0
LayerCount: 2
Fore
SplineSet
106 0 m 257
 384 0 l 258
 556 0 631 61 631 201 c 256
 631 291 591 358 508 377 c 257
 573 399 596 450 597 512 c 257
 597 635 558 706 362 706 c 258
 106 706 l 257
 106 0 l 257
205 73 m 257
 205 340 l 257
 400 340 l 258
 508 340 534 275 534 211 c 256
 534 96 485 73 376 73 c 258
 205 73 l 257
205 407 m 257
 205 632 l 257
 347 632 l 258
 466 632 499 613 499 511 c 256
 499 448 475 407 386 407 c 258
 205 407 l 257
EndSplineSet
EndChar

StartChar: C
Encoding: 67 67 21
Width: 710
VWidth: 0
Flags: HW
PickledData: "(dp1
S'org.robofab.postScriptHintData'
p2
(dp3
s."
AnchorPoint: "bot" 374 0 basechar 0
AnchorPoint: "top" 374 706 basechar 0
LayerCount: 2
Fore
SplineSet
372 -11 m 256
 597 -11 634 72 635 214 c 257
 635 219 l 257
 542 219 l 257
 542 207 l 257
 540 81 497 68 374 68 c 256
 249 68 188 97 188 222 c 258
 188 477 l 258
 188 602 247 638 371 638 c 256
 497 638 539 620 542 492 c 257
 542 479 l 257
 635 487 l 257
 635 493 l 257
 634 639 585 717 371 717 c 256
 134 717 89 608 89 459 c 258
 89 237 l 258
 89 90 136 -11 372 -11 c 256
EndSplineSet
EndChar

StartChar: D
Encoding: 68 68 28
Width: 743
VWidth: 0
Flags: HW
PickledData: "(dp1
S'org.robofab.postScriptHintData'
p2
(dp3
s."
AnchorPoint: "mid" 174 372 basechar 0
AnchorPoint: "top" 350 706 basechar 0
LayerCount: 2
Fore
SplineSet
205 73 m 257
 205 632 l 257
 378 632 l 258
 479 632 556 604 556 474 c 258
 556 226 l 258
 556 96 480 73 378 73 c 258
 205 73 l 257
106 0 m 257
 388 0 l 258
 567 0 654 82 654 235 c 258
 654 468 l 258
 654 603 583 706 387 706 c 258
 106 706 l 257
 106 0 l 257
EndSplineSet
EndChar

StartChar: uni0394
Encoding: 274 916 34
Width: 697
VWidth: 0
Flags: HW
PickledData: "(dp1
S'org.robofab.postScriptHintData'
p2
(dp3
s."
LayerCount: 2
Fore
SplineSet
79 0 m 257
 615 0 l 257
 392 706 l 257
 305 706 l 257
 79 0 l 257
191 70 m 257
 351 584 l 257
 506 70 l 257
 191 70 l 257
EndSplineSet
EndChar

StartChar: E
Encoding: 69 69 37
Width: 612
VWidth: 0
Flags: HW
PickledData: "(dp1
S'org.robofab.postScriptHintData'
p2
(dp3
s."
AnchorPoint: "bot" 307 0 basechar 0
AnchorPoint: "ogonek" 412 0 basechar 0
AnchorPoint: "top" 330 706 basechar 0
LayerCount: 2
Fore
SplineSet
106 0 m 257
 553 0 l 257
 553 73 l 257
 205 73 l 257
 205 327 l 257
 507 327 l 257
 507 400 l 257
 205 400 l 257
 205 633 l 257
 547 633 l 257
 547 706 l 257
 106 706 l 257
 106 0 l 257
EndSplineSet
EndChar

StartChar: Eng
Encoding: 283 330 48
Width: 772
VWidth: 0
Flags: HW
PickledData: "(dp1
S'org.robofab.postScriptHintData'
p2
(dp3
s."
LayerCount: 2
Fore
SplineSet
401 -182 m 257
 563 -182 669 -126 669 60 c 258
 669 706 l 257
 583 706 l 257
 583 229 l 257
 178 706 l 257
 104 706 l 257
 104 0 l 257
 190 0 l 257
 190 539 l 257
 577 93 l 257
 577 56 l 258
 577 -96 506 -102 387 -113 c 257
 401 -182 l 257
EndSplineSet
EndChar

StartChar: Euro
Encoding: 287 8364 52
Width: 712
VWidth: 0
Flags: HW
PickledData: "(dp1
S'org.robofab.postScriptHintData'
p2
(dp3
s."
LayerCount: 2
Fore
SplineSet
363 400 m 257
 363 465 l 257
 0 465 l 257
 0 400 l 257
 363 400 l 257
363 247 m 257
 363 312 l 257
 0 312 l 257
 0 247 l 257
 363 247 l 257
EndSplineSet
Refer: 21 67 N 1 0 0 1 0 0 2
EndChar

StartChar: F
Encoding: 70 70 53
Width: 565
VWidth: 0
Flags: HW
PickledData: "(dp1
S'org.robofab.postScriptHintData'
p2
(dp3
s."
AnchorPoint: "top" 320 706 basechar 0
LayerCount: 2
Fore
SplineSet
106 0 m 257
 205 0 l 257
 205 324 l 257
 490 324 l 257
 490 397 l 257
 205 397 l 257
 205 633 l 257
 507 633 l 257
 507 706 l 257
 106 706 l 257
 106 0 l 257
EndSplineSet
EndChar

StartChar: G
Encoding: 71 71 55
Width: 759
VWidth: 0
Flags: HW
PickledData: "(dp1
S'org.robofab.postScriptHintData'
p2
(dp3
s."
AnchorPoint: "bot" 380 0 basechar 0
AnchorPoint: "top" 379 706 basechar 0
LayerCount: 2
Fore
SplineSet
385 638 m 256
 523 638 566 620 566 489 c 257
 656 496 l 257
 656 509 l 257
 653 634 610 717 385 717 c 256
 148 717 91 608 91 459 c 258
 91 237 l 258
 91 90 149 -11 385 -11 c 256
 525 -11 586 43 598 120 c 257
 610 0 l 257
 664 0 l 257
 664 359 l 257
 398 359 l 257
 398 287 l 257
 565 287 l 257
 565 222 l 258
 565 97 511 68 385 68 c 256
 260 68 189 97 189 222 c 258
 189 477 l 258
 189 602 261 638 385 638 c 256
EndSplineSet
EndChar

StartChar: H
Encoding: 72 72 62
Width: 746
VWidth: 0
Flags: HW
PickledData: "(dp1
S'org.robofab.postScriptHintData'
p2
(dp3
s."
AnchorPoint: "center" 373 0 basechar 0
AnchorPoint: "top" 368 706 basechar 0
LayerCount: 2
Fore
SplineSet
104 0 m 257
 202 0 l 257
 202 322 l 257
 544 322 l 257
 544 0 l 257
 643 0 l 257
 643 706 l 257
 544 706 l 257
 544 394 l 257
 202 394 l 257
 202 706 l 257
 104 706 l 257
 104 0 l 257
EndSplineSet
EndChar

StartChar: Hbar
Encoding: 293 294 63
Width: 750
VWidth: 0
Flags: HW
PickledData: "(dp1
S'org.robofab.postScriptHintData'
p2
(dp3
s."
LayerCount: 2
Fore
SplineSet
70 518 m 257
 680 518 l 257
 680 578 l 257
 70 578 l 257
 70 518 l 257
EndSplineSet
Refer: 62 72 N 1 0 0 1 0 0 2
EndChar

StartChar: I
Encoding: 73 73 65
Width: 552
VWidth: 0
Flags: HW
PickledData: "(dp1
S'org.robofab.postScriptHintData'
p2
(dp3
s."
AnchorPoint: "ogonek" 313 0 basechar 0
AnchorPoint: "top" 277 706 basechar 0
LayerCount: 2
Fore
SplineSet
93 0 m 257
 460 0 l 257
 460 73 l 257
 326 73 l 257
 326 633 l 257
 460 633 l 257
 460 706 l 257
 93 706 l 257
 93 633 l 257
 228 633 l 257
 228 73 l 257
 93 73 l 257
 93 0 l 257
EndSplineSet
EndChar

StartChar: J
Encoding: 74 74 79
Width: 588
VWidth: 0
Flags: HW
PickledData: "(dp1
S'org.robofab.postScriptHintData'
p2
(dp3
s."
AnchorPoint: "top" 315 706 basechar 0
LayerCount: 2
Fore
SplineSet
255 -8 m 256
 414 -8 482 76 482 210 c 258
 482 706 l 257
 114 706 l 257
 114 625 l 257
 384 625 l 257
 384 212 l 258
 384 121 345 72 252 72 c 256
 181 72 100 99 77 110 c 257
 50 34 l 257
 82 17 173 -8 255 -8 c 256
EndSplineSet
EndChar

StartChar: K
Encoding: 75 75 81
Width: 692
VWidth: 0
Flags: HW
PickledData: "(dp1
S'org.robofab.postScriptHintData'
p2
(dp3
s."
AnchorPoint: "bot" 346 0 basechar 0
AnchorPoint: "top" 358 706 basechar 0
LayerCount: 2
Fore
SplineSet
106 0 m 257
 205 0 l 257
 205 229 l 257
 311 337 l 257
 550 0 l 257
 659 0 l 257
 380 390 l 257
 645 706 l 257
 539 706 l 257
 428 578 313 453 205 321 c 257
 205 706 l 257
 106 706 l 257
 106 0 l 257
EndSplineSet
EndChar

StartChar: L
Encoding: 76 76 84
Width: 559
VWidth: 0
Flags: HW
PickledData: "(dp1
S'org.robofab.postScriptHintData'
p2
(dp3
s."
AnchorPoint: "bot" 304 0 basechar 0
AnchorPoint: "top" 291 706 basechar 0
AnchorPoint: "mid" 150 354 basechar 0
LayerCount: 2
Fore
SplineSet
106 0 m 257
 521 0 l 257
 521 76 l 257
 205 76 l 257
 205 706 l 257
 106 706 l 257
 106 0 l 257
EndSplineSet
EndChar

StartChar: Lslash
Encoding: 313 321 91
Width: 559
VWidth: 0
Flags: HW
PickledData: "(dp1
S'org.robofab.postScriptHintData'
p2
(dp3
s."
LayerCount: 2
Fore
SplineSet
25 301 m 257
 403 489 l 257
 403 550 l 257
 25 361 l 257
 25 301 l 257
EndSplineSet
Refer: 84 76 N 1 0 0 1 0 0 2
EndChar

StartChar: M
Encoding: 77 77 92
Width: 868
VWidth: 0
Flags: HW
PickledData: "(dp1
S'org.robofab.postScriptHintData'
p2
(dp3
s."
AnchorPoint: "top" 433 706 basechar 0
LayerCount: 2
Fore
SplineSet
106 0 m 257
 200 0 l 257
 200 545 l 257
 398 224 l 257
 471 224 l 257
 669 547 l 257
 669 0 l 257
 762 0 l 257
 762 706 l 257
 675 706 l 257
 435 312 l 257
 197 706 l 257
 106 706 l 257
 106 0 l 257
EndSplineSet
EndChar

StartChar: N
Encoding: 78 78 94
Width: 778
VWidth: 0
Flags: HW
PickledData: "(dp1
S'org.robofab.postScriptHintData'
p2
(dp3
s."
AnchorPoint: "bot" 389 0 basechar 0
AnchorPoint: "top" 389 706 basechar 0
LayerCount: 2
Fore
SplineSet
106 0 m 257
 193 0 l 257
 193 539 l 257
 584 0 l 257
 672 0 l 257
 672 706 l 257
 585 706 l 257
 585 142 l 257
 181 706 l 257
 106 706 l 257
 106 0 l 257
EndSplineSet
EndChar

StartChar: O
Encoding: 79 79 102
Width: 754
VWidth: 0
Flags: HW
PickledData: "(dp1
S'org.robofab.postScriptHintData'
p2
(dp3
s."
AnchorPoint: "bot" 382 0 basechar 0
AnchorPoint: "ogonek" 399 0 basechar 0
AnchorPoint: "top" 382 706 basechar 0
LayerCount: 2
Fore
SplineSet
382 68 m 256
 257 68 189 97 189 222 c 258
 189 478 l 258
 189 603 258 638 382 638 c 256
 507 638 566 603 566 478 c 258
 566 222 l 258
 566 97 508 68 382 68 c 256
382 -11 m 256
 609 -11 664 99 664 244 c 258
 664 453 l 258
 664 602 610 717 382 717 c 256
 145 717 91 608 91 459 c 258
 91 237 l 258
 91 90 146 -11 382 -11 c 256
EndSplineSet
EndChar

StartChar: OE
Encoding: 320 338 103
Width: 760
VWidth: 0
Flags: HW
PickledData: "(dp1
S'org.robofab.postScriptHintData'
p2
(dp3
s."
AnchorPoint: "top" 380 0 basechar 0
LayerCount: 2
Fore
SplineSet
378 0 m 258
 683 0 l 257
 683 73 l 257
 477 73 l 257
 477 324 l 257
 649 324 l 257
 649 397 l 257
 477 397 l 257
 477 633 l 257
 679 633 l 257
 679 706 l 257
 378 706 l 258
 141 706 89 597 89 448 c 258
 89 249 l 258
 89 102 142 0 378 0 c 258
374 73 m 258
 252 73 188 110 188 234 c 258
 188 466 l 258
 188 590 252 632 373 632 c 258
 378 632 l 257
 378 73 l 257
 374 73 l 258
EndSplineSet
EndChar

StartChar: uni03A9
Encoding: 327 937 114
Width: 774
VWidth: 0
Flags: HW
PickledData: "(dp1
S'org.robofab.postScriptHintData'
p2
(dp3
s."
LayerCount: 2
Fore
SplineSet
387 717 m 256
 212 717 91 670 91 350 c 256
 91 179 145 107 221 69 c 257
 101 69 l 257
 101 0 l 257
 340 0 l 257
 340 69 l 257
 228 110 188 175 188 359 c 256
 188 609 260 637 387 637 c 256
 514 637 586 609 586 359 c 256
 586 175 546 110 434 69 c 257
 434 0 l 257
 673 0 l 257
 673 69 l 257
 554 69 l 257
 630 107 684 179 684 350 c 256
 684 670 562 717 387 717 c 256
EndSplineSet
EndChar

StartChar: Oslash
Encoding: 216 216 116
Width: 754
VWidth: 0
Flags: HW
PickledData: "(dp1
S'org.robofab.postScriptHintData'
p2
(dp3
s."
AnchorPoint: "top" 386 706 basechar 0
LayerCount: 2
Fore
SplineSet
234 -95 m 257
 565 800 l 257
 515 818 l 257
 184 -77 l 257
 234 -95 l 257
EndSplineSet
Refer: 102 79 N 1 0 0 1 0 0 2
EndChar

StartChar: P
Encoding: 80 80 119
Width: 647
VWidth: 0
Flags: HW
PickledData: "(dp1
S'org.robofab.postScriptHintData'
p2
(dp3
s."
AnchorPoint: "top" 350 706 basechar 0
LayerCount: 2
Fore
SplineSet
106 0 m 257
 205 0 l 257
 205 258 l 257
 387 258 l 258
 507 258 585 315 585 484 c 256
 585 645 508 706 389 706 c 258
 106 706 l 257
 106 0 l 257
205 333 m 257
 205 631 l 257
 392 631 l 258
 480 631 486 546 486 477 c 256
 486 404 474 333 389 333 c 258
 205 333 l 257
EndSplineSet
EndChar

StartChar: Q
Encoding: 81 81 121
Width: 752
VWidth: 0
Flags: HW
PickledData: "(dp1
S'org.robofab.postScriptHintData'
p2
(dp3
s."
LayerCount: 2
Fore
SplineSet
461 -188 m 257
 530 -150 l 257
 437 -8 l 257
 618 9 664 112 664 244 c 258
 664 453 l 258
 664 602 610 717 382 717 c 256
 145 717 91 608 91 459 c 258
 91 237 l 258
 91 97 141 -1 349 -10 c 257
 461 -188 l 257
382 68 m 256
 257 68 189 97 189 222 c 258
 189 478 l 258
 189 603 258 638 382 638 c 256
 507 638 566 603 566 478 c 258
 566 222 l 258
 566 97 508 68 382 68 c 256
EndSplineSet
EndChar

StartChar: R
Encoding: 82 82 122
Width: 714
VWidth: 0
Flags: HW
PickledData: "(dp1
S'org.robofab.postScriptHintData'
p2
(dp3
s."
AnchorPoint: "bot" 357 0 basechar 0
AnchorPoint: "top" 350 706 basechar 0
LayerCount: 2
Fore
SplineSet
106 0 m 257
 205 0 l 257
 205 292 l 257
 205 292 423 293 428 293 c 257
 568 0 l 257
 669 0 l 257
 519 311 l 257
 578 336 619 383 619 497 c 256
 619 655 540 706 421 706 c 258
 106 706 l 257
 106 0 l 257
205 367 m 257
 205 631 l 257
 424 631 l 258
 512 631 520 556 520 488 c 256
 520 420 498 367 413 367 c 258
 205 367 l 257
EndSplineSet
EndChar

StartChar: S
Encoding: 83 83 128
Width: 636
VWidth: 0
Flags: HW
PickledData: "(dp1
S'org.robofab.postScriptHintData'
p2
(dp3
s."
AnchorPoint: "bot" 323 0 basechar 0
AnchorPoint: "top" 330 706 basechar 0
LayerCount: 2
Fore
SplineSet
337 -11 m 256
 501 -11 568 68 568 198 c 256
 568 305 525 351 429 383 c 258
 251 443 l 258
 191 463 179 488 179 531 c 256
 179 538 180 547 180 555 c 256
 184 615 240 638 337 638 c 256
 429 638 491 614 533 591 c 257
 557 667 l 257
 512 695 441 717 320 717 c 256
 185 717 83 667 83 532 c 256
 83 436 123 391 221 359 c 258
 392 303 l 258
 464 280 478 253 478 213 c 256
 478 111 450 68 335 68 c 256
 249 68 159 98 105 130 c 257
 70 55 l 257
 144 12 232 -11 337 -11 c 256
EndSplineSet
EndChar

StartChar: Sigma
Encoding: 341 931 136
Width: 564
VWidth: 0
Flags: HW
PickledData: "(dp1
S'org.robofab.postScriptHintData'
p2
(dp3
s."
LayerCount: 2
Fore
SplineSet
525 0 m 257
 525 79 l 257
 157 79 l 257
 379 360 l 257
 379 394 l 257
 155 628 l 257
 525 628 l 257
 525 706 l 257
 55 706 l 257
 55 634 l 257
 292 372 l 257
 55 76 l 257
 55 0 l 257
 525 0 l 257
EndSplineSet
EndChar

StartChar: T
Encoding: 84 84 137
Width: 587
VWidth: 0
Flags: HW
PickledData: "(dp1
S'org.robofab.postScriptHintData'
p2
(dp3
s."
AnchorPoint: "center" 294 0 basechar 0
AnchorPoint: "mid" 294 368 basechar 0
AnchorPoint: "top" 300 706 basechar 0
AnchorPoint: "bot" 294 0 basechar 0
LayerCount: 2
Fore
SplineSet
245 0 m 257
 343 0 l 257
 343 625 l 257
 547 625 l 257
 547 706 l 257
 41 706 l 257
 41 625 l 257
 245 625 l 257
 245 0 l 257
EndSplineSet
EndChar

StartChar: Thorn
Encoding: 345 222 142
Width: 644
VWidth: 0
Flags: HW
PickledData: "(dp1
S'org.robofab.postScriptHintData'
p2
(dp3
s."
LayerCount: 2
Fore
SplineSet
104 0 m 257
 202 0 l 257
 202 162 l 257
 384 162 l 258
 504 162 582 208 582 377 c 256
 582 538 504 590 385 590 c 258
 202 590 l 257
 202 706 l 257
 104 706 l 257
 104 0 l 257
202 236 m 257
 202 515 l 257
 388 515 l 258
 476 515 483 440 483 371 c 256
 483 298 471 236 386 236 c 258
 202 236 l 257
EndSplineSet
EndChar

StartChar: U
Encoding: 85 85 143
Width: 750
VWidth: 0
Flags: HW
PickledData: "(dp1
S'org.robofab.postScriptHintData'
p2
(dp3
s."
AnchorPoint: "ogonek" 411 0 basechar 0
AnchorPoint: "top" 380 706 basechar 0
LayerCount: 2
Fore
SplineSet
380 -11 m 256
 601 -11 653 100 653 231 c 258
 653 706 l 257
 555 706 l 257
 555 221 l 258
 555 91 479 68 380 68 c 256
 282 68 196 91 196 221 c 258
 196 706 l 257
 98 706 l 257
 98 231 l 258
 98 99 149 -11 380 -11 c 256
EndSplineSet
EndChar

StartChar: V
Encoding: 86 86 157
Width: 676
VWidth: 0
Flags: HW
PickledData: "(dp1
S'org.robofab.postScriptHintData'
p2
(dp3
s."
LayerCount: 2
Fore
SplineSet
294 0 m 257
 380 0 l 257
 635 706 l 257
 533 706 l 257
 338 144 l 257
 143 706 l 257
 42 706 l 257
 294 0 l 257
EndSplineSet
EndChar

StartChar: W
Encoding: 87 87 158
Width: 1000
VWidth: 0
Flags: HW
PickledData: "(dp1
S'org.robofab.postScriptHintData'
p2
(dp3
s."
AnchorPoint: "top" 506 706 basechar 0
LayerCount: 2
Fore
SplineSet
255 0 m 257
 329 0 l 257
 506 602 l 257
 679 0 l 257
 753 0 l 257
 945 706 l 257
 856 706 l 257
 714 169 l 257
 553 706 l 257
 448 706 l 257
 294 169 l 257
 145 706 l 257
 55 706 l 257
 255 0 l 257
EndSplineSet
EndChar

StartChar: X
Encoding: 88 88 163
Width: 652
VWidth: 0
Flags: HW
PickledData: "(dp1
S'org.robofab.postScriptHintData'
p2
(dp3
s."
LayerCount: 2
Fore
SplineSet
46 0 m 257
 149 0 l 257
 326 277 l 257
 500 0 l 257
 606 0 l 257
 377 358 l 257
 599 706 l 257
 493 706 l 257
 327 438 l 257
 156 706 l 257
 57 706 l 257
 276 357 l 257
 46 0 l 257
EndSplineSet
EndChar

StartChar: Y
Encoding: 89 89 164
Width: 643
VWidth: 0
Flags: HW
PickledData: "(dp1
S'org.robofab.postScriptHintData'
p2
(dp3
s."
AnchorPoint: "top" 332 706 basechar 0
LayerCount: 2
Fore
SplineSet
273 0 m 257
 372 0 l 257
 372 277 l 257
 620 706 l 257
 519 706 l 257
 323 363 l 257
 127 706 l 257
 23 706 l 257
 273 277 l 257
 273 0 l 257
EndSplineSet
EndChar

StartChar: Z
Encoding: 90 90 171
Width: 606
VWidth: 0
Flags: HW
PickledData: "(dp1
S'org.robofab.postScriptHintData'
p2
(dp3
s."
AnchorPoint: "top" 324 706 basechar 0
LayerCount: 2
Fore
SplineSet
88 0 m 257
 535 0 l 257
 535 81 l 257
 196 81 l 257
 529 632 l 257
 529 706 l 257
 103 706 l 257
 103 625 l 257
 421 625 l 257
 88 73 l 257
 88 0 l 257
EndSplineSet
EndChar

StartChar: a
Encoding: 97 97 175
Width: 572
VWidth: 0
Flags: HW
PickledData: "(dp1
S'org.robofab.postScriptHintData'
p2
(dp3
sS'com.typemytype.robofont.layerData'
p4
(dp5
s."
AnchorPoint: "ogonek" 491 5 basechar 0
AnchorPoint: "top" 285 518 basechar 0
LayerCount: 2
Fore
SplineSet
70 131 m 256
 70 46 111 -11 220 -11 c 256
 315 -11 366 38 389 73 c 257
 405 24 429 -4 498 -4 c 258
 517 -4 l 257
 527 66 l 257
 483 66 473 76 473 131 c 258
 473 352 l 258
 473 458 426 527 289 527 c 256
 153 527 85 482 85 380 c 258
 85 357 l 257
 173 357 l 257
 173 380 l 258
 173 422 182 457 286 457 c 256
 369 457 381 422 381 380 c 256
 381 345 376 333 355 326 c 258
 247 286 l 257
 109 236 70 201 70 131 c 256
238 58 m 256
 174 58 158 77 158 133 c 256
 158 176 188 198 265 228 c 258
 381 272 l 257
 381 145 l 257
 366 97 293 58 238 58 c 256
EndSplineSet
EndChar

StartChar: acute
Encoding: 362 180 180
Width: 300
VWidth: 0
Flags: HW
PickledData: "(dp1
S'org.robofab.postScriptHintData'
p2
(dp3
s."
AnchorPoint: "top" 124 518 mark 0
LayerCount: 2
Fore
SplineSet
100 588 m 257
 162 588 l 257
 277 774 l 257
 167 774 l 257
 100 588 l 257
EndSplineSet
EndChar

StartChar: ae
Encoding: 230 230 184
Width: 850
VWidth: 0
Flags: HW
PickledData: "(dp1
S'org.robofab.postScriptHintData'
p2
(dp3
s."
AnchorPoint: "top" 438 518 basechar 0
LayerCount: 2
Fore
SplineSet
229 -11 m 256
 345 -11 394 33 419 87 c 257
 440 37 487 -11 581 -11 c 256
 723 -11 773 29 783 155 c 257
 700 155 l 257
 694 66 662 59 581 59 c 256
 509 59 473 91 473 160 c 258
 473 250 l 257
 786 250 l 257
 786 370 l 258
 786 468 719 527 584 527 c 256
 513 527 463 506 433 458 c 257
 415 505 355 527 288 527 c 256
 152 527 84 483 84 371 c 258
 84 357 l 257
 172 357 l 257
 172 370 l 258
 172 418 179 457 283 457 c 256
 377 457 382 415 382 377 c 256
 382 325 368 306 258 281 c 256
 100 245 64 206 64 138 c 256
 64 58 119 -11 229 -11 c 256
245 59 m 256
 191 59 152 81 152 139 c 256
 152 185 200 198 274 219 c 256
 350 240 381 265 381 275 c 258
 381 136 l 257
 366 88 300 59 245 59 c 256
473 309 m 257
 473 371 l 258
 473 435 511 458 584 458 c 256
 655 458 702 442 702 380 c 258
 702 309 l 257
 473 309 l 257
EndSplineSet
EndChar

StartChar: ampersand
Encoding: 38 38 190
Width: 732
VWidth: 0
Flags: HW
PickledData: "(dp1
S'org.robofab.postScriptHintData'
p2
(dp3
s."
LayerCount: 2
Fore
SplineSet
352 -12 m 256
 476 -12 542 14 579 56 c 257
 648 -9 l 257
 699 46 l 257
 614 127 l 257
 622 162 623 202 623 244 c 258
 623 380 l 257
 538 380 l 257
 538 222 l 258
 538 214 537 207 537 200 c 257
 282 443 l 257
 238 489 222 512 222 550 c 256
 222 607 241 650 344 650 c 256
 436 650 468 635 468 568 c 258
 468 539 l 257
 549 539 l 257
 549 588 l 258
 549 703 476 724 336 724 c 256
 173 724 129 646 129 558 c 256
 129 483 163 445 214 398 c 257
 119 370 86 312 86 214 c 256
 86 96 136 -12 352 -12 c 256
352 62 m 256
 227 62 185 116 185 217 c 256
 185 277 190 332 263 353 c 257
 519 112 l 257
 494 66 443 62 352 62 c 256
EndSplineSet
EndChar

StartChar: approxequal
Encoding: 370 8776 192
Width: 430
VWidth: 0
Flags: HW
PickledData: "(dp1
S'org.robofab.postScriptHintData'
p2
(dp3
s."
LayerCount: 2
Fore
SplineSet
293 310 m 256
 352 310 399 351 399 432 c 257
 352 432 l 257
 352 402 338 381 298 381 c 256
 263 381 204 438 137 438 c 256
 78 438 31 398 31 317 c 257
 79 317 l 257
 79 347 92 367 132 367 c 256
 167 367 226 310 293 310 c 256
293 459 m 256
 352 459 399 500 399 581 c 257
 352 581 l 257
 352 551 338 531 298 531 c 256
 263 531 204 588 137 588 c 256
 78 588 31 547 31 466 c 257
 79 466 l 257
 79 496 92 517 132 517 c 256
 167 517 226 459 293 459 c 256
EndSplineSet
EndChar

StartChar: asciicircum
Encoding: 94 94 195
Width: 613
VWidth: 0
Flags: HW
PickledData: "(dp1
S'org.robofab.postScriptHintData'
p2
(dp3
s."
LayerCount: 2
Fore
SplineSet
75 306 m 257
 170 306 l 257
 307 567 l 257
 444 306 l 257
 539 306 l 257
 359 626 l 257
 250 626 l 257
 75 306 l 257
EndSplineSet
EndChar

StartChar: asciitilde
Encoding: 126 126 196
Width: 430
VWidth: 0
Flags: HW
PickledData: "(dp1
S'org.robofab.postScriptHintData'
p2
(dp3
s."
LayerCount: 2
Fore
SplineSet
293 573 m 256
 352 573 399 628 399 709 c 257
 352 709 l 257
 352 679 338 644 298 644 c 256
 263 644 204 716 137 716 c 256
 78 716 31 661 31 580 c 257
 79 580 l 257
 79 610 92 645 132 645 c 256
 167 645 226 573 293 573 c 256
EndSplineSet
EndChar

StartChar: asterisk
Encoding: 42 42 197
Width: 500
VWidth: 0
Flags: HW
PickledData: "(dp1
S'org.robofab.postScriptHintData'
p2
(dp3
s."
LayerCount: 2
Fore
SplineSet
207 292 m 257
 293 292 l 257
 279 445 l 257
 400 353 l 257
 446 427 l 257
 310 497 l 257
 452 554 l 257
 412 632 l 257
 279 547 l 257
 293 706 l 257
 207 706 l 257
 220 553 l 257
 100 646 l 257
 53 571 l 257
 190 502 l 257
 48 445 l 257
 87 366 l 257
 221 451 l 257
 207 292 l 257
EndSplineSet
EndChar

StartChar: at
Encoding: 64 64 198
Width: 1000
VWidth: 0
Flags: HW
PickledData: "(dp1
S'org.robofab.postScriptHintData'
p2
(dp3
s."
LayerCount: 2
Fore
SplineSet
539 -126 m 256
 648 -126 760 -101 816 -77 c 257
 792 -8 l 257
 743 -29 644 -54 539 -54 c 256
 375 -54 270 7 270 146 c 258
 270 457 l 258
 270 597 356 650 519 650 c 256
 714 650 731 576 731 466 c 257
 731 466 649 447 584 431 c 256
 396 386 363 336 363 260 c 256
 363 171 424 95 547 95 c 256
 653 95 717 145 743 184 c 257
 755 144 769 104 846 104 c 258
 865 104 l 257
 875 176 l 257
 821 176 818 192 818 234 c 258
 818 475 l 258
 818 568 816 724 519 724 c 256
 255 724 177 604 177 437 c 258
 177 162 l 258
 177 -2 276 -126 539 -126 c 256
563 167 m 256
 502 167 462 197 462 263 c 256
 462 310 484 338 592 366 c 256
 666 385 722 399 731 403 c 257
 731 255 l 257
 715 201 625 167 563 167 c 256
EndSplineSet
EndChar

StartChar: b
Encoding: 98 98 200
Width: 587
VWidth: 0
Flags: HW
PickledData: "(dp1
S'org.robofab.postScriptHintData'
p2
(dp3
s."
AnchorPoint: "top" 324 518 basechar 0
LayerCount: 2
Fore
SplineSet
306 -11 m 256
 441 -11 516 68 516 172 c 258
 516 359 l 258
 516 459 449 527 317 527 c 256
 269 527 216 512 183 493 c 257
 183 735 l 257
 91 735 l 257
 91 0 l 257
 159 0 l 257
 170 35 l 257
 197 18 244 -11 306 -11 c 256
292 62 m 256
 249 62 210 77 183 92 c 257
 183 425 l 257
 217 441 270 457 313 457 c 256
 380 457 424 428 424 366 c 258
 424 162 l 258
 424 99 364 62 292 62 c 256
EndSplineSet
EndChar

StartChar: backslash
Encoding: 92 92 201
Width: 375
VWidth: 0
Flags: HW
PickledData: "(dp1
S'org.robofab.postScriptHintData'
p2
(dp3
s."
LayerCount: 2
Fore
SplineSet
254 0 m 257
 344 0 l 257
 123 735 l 257
 31 735 l 257
 254 0 l 257
EndSplineSet
EndChar

StartChar: bar
Encoding: 124 124 202
Width: 336
VWidth: 0
Flags: HW
PickledData: "(dp1
S'org.robofab.postScriptHintData'
p2
(dp3
s."
LayerCount: 2
Fore
SplineSet
125 -82 m 257
 212 -82 l 257
 212 759 l 257
 125 759 l 257
 125 -82 l 257
EndSplineSet
EndChar

StartChar: braceleft
Encoding: 123 123 204
Width: 464
VWidth: 0
Flags: HW
PickledData: "(dp1
S'org.robofab.postScriptHintData'
p2
(dp3
s."
LayerCount: 2
Fore
SplineSet
423 -101 m 257
 423 -27 l 257
 285 -27 283 1 283 115 c 258
 283 145 l 258
 283 229 268 299 232 317 c 257
 268 335 283 405 283 489 c 258
 283 520 l 258
 283 634 285 662 423 662 c 257
 423 735 l 257
 191 735 189 655 189 511 c 258
 189 491 l 258
 189 365 165 354 114 354 c 256
 103 354 92 354 78 354 c 257
 78 280 l 257
 92 280 103 281 114 281 c 256
 165 281 189 270 189 144 c 258
 189 124 l 258
 189 -20 191 -101 423 -101 c 257
EndSplineSet
EndChar

StartChar: braceright
Encoding: 125 125 205
Width: 464
VWidth: 0
Flags: HW
PickledData: "(dp1
S'org.robofab.postScriptHintData'
p2
(dp3
s."
LayerCount: 2
Fore
SplineSet
62 -101 m 257
 294 -101 297 -20 297 124 c 258
 297 144 l 258
 297 270 321 281 372 281 c 256
 383 281 394 280 408 280 c 257
 408 354 l 257
 394 354 383 354 372 354 c 256
 321 354 297 365 297 491 c 258
 297 511 l 258
 297 655 294 735 62 735 c 257
 62 662 l 257
 200 662 203 634 203 520 c 258
 203 489 l 258
 203 405 218 335 254 317 c 257
 218 299 203 229 203 145 c 258
 203 115 l 258
 203 1 200 -27 62 -27 c 257
 62 -101 l 257
EndSplineSet
EndChar

StartChar: bracketleft
Encoding: 91 91 206
Width: 375
VWidth: 0
Flags: HW
PickledData: "(dp1
S'org.robofab.postScriptHintData'
p2
(dp3
s."
LayerCount: 2
Fore
SplineSet
125 -37 m 257
 310 -37 l 257
 310 28 l 257
 217 28 l 257
 217 682 l 257
 310 682 l 257
 310 747 l 257
 125 747 l 257
 125 -37 l 257
EndSplineSet
EndChar

StartChar: bracketright
Encoding: 93 93 207
Width: 375
VWidth: 0
Flags: HW
PickledData: "(dp1
S'org.robofab.postScriptHintData'
p2
(dp3
s."
LayerCount: 2
Fore
SplineSet
95 -37 m 257
 280 -37 l 257
 280 747 l 257
 95 747 l 257
 95 681 l 257
 188 681 l 257
 188 28 l 257
 95 28 l 257
 95 -37 l 257
EndSplineSet
EndChar

StartChar: breve
Encoding: 372 728 208
Width: 250
VWidth: 0
Flags: HW
PickledData: "(dp1
S'org.robofab.postScriptHintData'
p2
(dp3
s."
AnchorPoint: "top" 130 518 mark 0
LayerCount: 2
Fore
SplineSet
125 632 m 256
 193 632 235 679 235 735 c 257
 174 735 l 257
 174 706 149 691 125 691 c 256
 101 691 76 706 76 735 c 257
 15 735 l 257
 15 679 57 632 125 632 c 256
EndSplineSet
EndChar

StartChar: brokenbar
Encoding: 373 166 209
Width: 329
VWidth: 0
Flags: HW
PickledData: "(dp1
S'org.robofab.postScriptHintData'
p2
(dp3
s."
LayerCount: 2
Fore
SplineSet
124 -82 m 257
 211 -82 l 257
 211 250 l 257
 124 250 l 257
 124 -82 l 257
124 414 m 257
 211 414 l 257
 211 759 l 257
 124 759 l 257
 124 414 l 257
EndSplineSet
EndChar

StartChar: bullet
Encoding: 374 8226 210
Width: 476
VWidth: 0
Flags: HW
PickledData: "(dp1
S'org.robofab.postScriptHintData'
p2
(dp3
s."
LayerCount: 2
Fore
SplineSet
237 146 m 256
 348 146 388 197 388 292 c 256
 388 388 349 440 238 440 c 256
 128 440 88 388 88 292 c 256
 88 197 127 146 237 146 c 256
EndSplineSet
EndChar

StartChar: uni2219
Encoding: 375 8729 211
Width: 386
VWidth: 0
Flags: HW
PickledData: "(dp1
S'org.robofab.postScriptHintData'
p2
(dp3
s."
LayerCount: 2
Fore
SplineSet
193 159 m 256
 129 159 82 211 82 275 c 256
 82 339 129 391 193 391 c 256
 257 391 305 339 305 275 c 256
 305 211 257 159 193 159 c 256
EndSplineSet
EndChar

StartChar: c
Encoding: 99 99 212
Width: 540
VWidth: 0
Flags: HW
PickledData: "(dp1
S'org.robofab.postScriptHintData'
p2
(dp3
s."
AnchorPoint: "bot" 273 0 basechar 0
AnchorPoint: "top" 290 518 basechar 0
LayerCount: 2
Fore
SplineSet
283 -11 m 256
 424 -11 473 32 483 151 c 257
 398 151 l 257
 391 73 374 60 283 60 c 256
 209 60 164 86 164 160 c 258
 164 363 l 258
 164 432 204 457 283 457 c 256
 369 457 397 440 397 345 c 257
 484 354 l 257
 484 493 404 527 280 527 c 256
 152 527 72 463 72 365 c 258
 72 168 l 258
 72 72 129 -11 283 -11 c 256
EndSplineSet
EndChar

StartChar: caron
Encoding: 377 711 214
Width: 250
VWidth: 0
Flags: HW
PickledData: "(dp1
S'org.robofab.postScriptHintData'
p2
(dp3
s."
AnchorPoint: "top" 125 518 mark 0
LayerCount: 2
Fore
SplineSet
164 628 m 257
 265 758 l 257
 179 758 l 257
 128 688 l 257
 73 758 l 257
 -15 758 l 257
 91 628 l 257
 164 628 l 257
EndSplineSet
EndChar

StartChar: caron.alt
Encoding: 378 -1 215
Width: 292
VWidth: 0
Flags: HW
PickledData: "(dp1
S'org.robofab.postScriptHintData'
p2
(dp3
s."
AnchorPoint: "caron.alt" 152 518 mark 0
LayerCount: 2
Fore
SplineSet
343 597 m 257
 371 623 427 693 427 786 c 258
 427 875 l 257
 302 875 l 257
 302 762 l 257
 371 762 l 257
 371 698 327 645 304 618 c 257
 343 597 l 257
EndSplineSet
EndChar

StartChar: cedilla
Encoding: 381 184 220
Width: 250
VWidth: 0
Flags: HW
PickledData: "(dp1
S'org.robofab.postScriptHintData'
p2
(dp3
s."
AnchorPoint: "bot" 100 0 mark 0
LayerCount: 2
Fore
SplineSet
104 -237 m 256
 185 -237 225 -194 225 -148 c 256
 225 -105 189 -59 117 -46 c 257
 114 0 l 257
 83 0 l 257
 83 -77 l 257
 132 -78 162 -112 162 -142 c 256
 162 -167 141 -190 93 -190 c 256
 83 -190 72 -189 59 -187 c 257
 59 -233 l 257
 76 -236 90 -237 104 -237 c 256
EndSplineSet
EndChar

StartChar: cent
Encoding: 382 162 221
Width: 541
VWidth: 0
Flags: HW
PickledData: "(dp1
S'org.robofab.postScriptHintData'
p2
(dp3
s."
LayerCount: 2
Fore
SplineSet
264 495 m 257
 314 495 l 257
 314 624 l 257
 264 624 l 257
 264 495 l 257
264 -100 m 257
 314 -100 l 257
 314 29 l 257
 264 29 l 257
 264 -100 l 257
EndSplineSet
Refer: 212 99 N 1 0 0 1 0 0 2
EndChar

StartChar: circumflex
Encoding: 383 710 222
Width: 250
VWidth: 0
Flags: HW
PickledData: "(dp1
S'org.robofab.postScriptHintData'
p2
(dp3
s."
AnchorPoint: "top" 125 518 mark 0
LayerCount: 2
Fore
SplineSet
-15 628 m 257
 73 628 l 257
 128 699 l 257
 179 628 l 257
 265 628 l 257
 164 758 l 257
 91 758 l 257
 -15 628 l 257
EndSplineSet
EndChar

StartChar: comma
Encoding: 44 44 224
Width: 312
VWidth: 0
Flags: HW
PickledData: "(dp1
S'org.robofab.postScriptHintData'
p2
(dp3
s."
LayerCount: 2
Fore
SplineSet
135 -165 m 257
 163 -139 219 -69 219 24 c 258
 219 114 l 257
 94 114 l 257
 94 0 l 257
 163 0 l 257
 163 -64 119 -117 96 -144 c 257
 135 -165 l 257
EndSplineSet
EndChar

StartChar: copyright
Encoding: 169 169 225
Width: 871
VWidth: 0
Flags: HW
PickledData: "(dp1
S'org.robofab.postScriptHintData'
p2
(dp3
s."
LayerCount: 2
Fore
SplineSet
441 140 m 256
 576 140 600 206 600 292 c 258
 600 309 l 257
 543 309 l 257
 543 279 l 258
 543 205 516 184 441 184 c 256
 367 184 328 205 328 279 c 258
 328 435 l 258
 328 509 366 533 440 533 c 256
 514 533 543 509 543 435 c 258
 543 403 l 257
 600 408 l 257
 600 420 l 258
 600 509 575 577 440 577 c 256
 299 577 269 513 269 424 c 258
 269 288 l 258
 269 201 301 140 441 140 c 256
437 40 m 256
 259 40 129 175 129 353 c 256
 129 531 259 665 437 665 c 256
 616 665 743 531 743 353 c 256
 743 175 616 40 437 40 c 256
436 -7 m 256
 639 -7 795 148 795 353 c 256
 795 557 639 711 436 711 c 256
 234 711 76 557 76 353 c 256
 76 148 234 -7 436 -7 c 256
EndSplineSet
EndChar

StartChar: currency
Encoding: 384 164 226
Width: 561
VWidth: 0
Flags: HW
PickledData: "(dp1
S'org.robofab.postScriptHintData'
p2
(dp3
s."
LayerCount: 2
Fore
SplineSet
275 176 m 256
 325 176 371 198 399 237 c 257
 479 184 l 257
 504 223 l 257
 421 279 l 257
 428 297 431 316 431 336 c 256
 431 366 423 395 410 420 c 257
 500 485 l 257
 475 525 l 257
 381 457 l 257
 353 484 316 497 275 497 c 256
 235 497 199 484 171 458 c 257
 83 518 l 257
 57 478 l 257
 142 421 l 257
 127 396 120 367 120 336 c 256
 120 312 125 289 134 268 c 257
 62 216 l 257
 86 176 l 257
 158 229 l 257
 187 195 229 176 275 176 c 256
276 217 m 256
 213 217 166 271 166 337 c 256
 166 403 213 457 276 457 c 256
 339 457 386 403 386 337 c 256
 386 271 339 217 276 217 c 256
EndSplineSet
EndChar

StartChar: d
Encoding: 100 100 227
Width: 585
VWidth: 0
Flags: HW
PickledData: "(dp1
S'org.robofab.postScriptHintData'
p2
(dp3
s."
AnchorPoint: "mid" 448 623 basechar 0
AnchorPoint: "caron.alt" 403 518 basechar 0
AnchorPoint: "top" 285 518 basechar 0
LayerCount: 2
Fore
SplineSet
277 -11 m 256
 330 -11 387 11 417 34 c 257
 433 0 l 257
 495 0 l 257
 495 735 l 257
 403 735 l 257
 403 508 l 257
 371 520 322 527 289 527 c 256
 139 527 72 463 72 359 c 258
 72 164 l 258
 72 64 128 -11 277 -11 c 256
283 62 m 256
 216 62 164 93 164 157 c 258
 164 369 l 258
 164 432 218 457 290 457 c 256
 333 457 376 449 403 436 c 257
 403 92 l 257
 382 79 335 62 283 62 c 256
EndSplineSet
EndChar

StartChar: dagger
Encoding: 385 8224 228
Width: 434
VWidth: 0
Flags: HW
PickledData: "(dp1
S'org.robofab.postScriptHintData'
p2
(dp3
s."
LayerCount: 2
Fore
SplineSet
170 0 m 257
 262 0 l 257
 262 455 l 257
 392 455 l 257
 392 518 l 257
 262 518 l 257
 262 706 l 257
 170 706 l 257
 170 518 l 257
 43 518 l 257
 43 455 l 257
 170 455 l 257
 170 0 l 257
EndSplineSet
EndChar

StartChar: daggerdbl
Encoding: 386 8225 229
Width: 458
VWidth: 0
Flags: HW
PickledData: "(dp1
S'org.robofab.postScriptHintData'
p2
(dp3
s."
LayerCount: 2
Fore
SplineSet
182 0 m 257
 273 0 l 257
 273 200 l 257
 403 200 l 257
 403 263 l 257
 273 263 l 257
 273 455 l 257
 403 455 l 257
 403 518 l 257
 273 518 l 257
 273 706 l 257
 182 706 l 257
 182 518 l 257
 55 518 l 257
 55 455 l 257
 182 455 l 257
 182 263 l 257
 55 263 l 257
 55 200 l 257
 182 200 l 257
 182 0 l 257
EndSplineSet
EndChar

StartChar: degree
Encoding: 389 176 233
Width: 505
VWidth: 0
Flags: HW
PickledData: "(dp1
S'org.robofab.postScriptHintData'
p2
(dp3
s."
LayerCount: 2
Fore
SplineSet
253 432 m 256
 189 432 142 484 142 548 c 256
 142 612 189 665 253 665 c 256
 317 665 365 612 365 548 c 256
 365 484 317 432 253 432 c 256
253 390 m 256
 340 390 411 461 411 548 c 256
 411 635 340 706 253 706 c 256
 166 706 95 635 95 548 c 256
 95 461 166 390 253 390 c 256
EndSplineSet
EndChar

StartChar: dieresis
Encoding: 390 168 234
Width: 500
VWidth: 0
Flags: HW
PickledData: "(dp1
S'org.robofab.postScriptHintData'
p2
(dp3
s."
AnchorPoint: "top" 250 518 mark 0
LayerCount: 2
Fore
SplineSet
77 656 m 257
 178 656 l 257
 178 744 l 257
 77 744 l 257
 77 656 l 257
323 656 m 257
 423 656 l 257
 423 744 l 257
 323 744 l 257
 323 656 l 257
EndSplineSet
EndChar

StartChar: divide
Encoding: 391 247 235
Width: 500
VWidth: 0
Flags: HW
PickledData: "(dp1
S'org.robofab.postScriptHintData'
p2
(dp3
s."
LayerCount: 2
Fore
SplineSet
202 44 m 257
 302 44 l 257
 302 146 l 257
 202 146 l 257
 202 44 l 257
49 230 m 257
 452 230 l 257
 452 297 l 257
 49 297 l 257
 49 230 l 257
202 384 m 257
 302 384 l 257
 302 486 l 257
 202 486 l 257
 202 384 l 257
EndSplineSet
EndChar

StartChar: dollar
Encoding: 36 36 237
Width: 636
VWidth: 0
Flags: HW
PickledData: "(dp1
S'org.robofab.postScriptHintData'
p2
(dp3
s."
LayerCount: 2
Fore
SplineSet
303 -182 m 257
 356 -182 l 257
 356 858 l 257
 303 858 l 257
 303 -182 l 257
EndSplineSet
Refer: 128 83 N 1 0 0 1 0 0 2
EndChar

StartChar: dotaccent
Encoding: 393 729 238
Width: 250
VWidth: 0
Flags: HW
PickledData: "(dp1
S'org.robofab.postScriptHintData'
p2
(dp3
s."
AnchorPoint: "top" 125 518 mark 0
LayerCount: 2
Fore
SplineSet
73 648 m 257
 167 648 l 257
 167 750 l 257
 73 750 l 257
 73 648 l 257
EndSplineSet
EndChar

StartChar: dotlessi
Encoding: 394 305 239
Width: 271
VWidth: 0
Flags: HW
PickledData: "(dp1
S'org.robofab.postScriptHintData'
p2
(dp3
s."
AnchorPoint: "ogonek" 148 0 basechar 0
AnchorPoint: "top" 144 518 basechar 0
LayerCount: 2
Fore
SplineSet
94 0 m 257
 186 0 l 257
 186 518 l 257
 94 518 l 257
 94 0 l 257
EndSplineSet
EndChar

StartChar: uni0237
Encoding: 395 567 240
Width: 290
VWidth: 0
Flags: HW
PickledData: "(dp1
S'org.robofab.postScriptHintData'
p2
(dp3
s."
AnchorPoint: "top" 162 518 basechar 0
LayerCount: 2
Fore
SplineSet
13 -172 m 257
 45 -172 l 258
 146 -172 203 -149 203 3 c 258
 203 518 l 257
 111 518 l 257
 111 -2 l 258
 111 -85 83 -96 18 -96 c 258
 4 -96 l 257
 13 -172 l 257
EndSplineSet
EndChar

StartChar: e
Encoding: 101 101 243
Width: 555
VWidth: 0
Flags: HW
PickledData: "(dp1
S'org.robofab.postScriptHintData'
p2
(dp3
s."
AnchorPoint: "bot" 288 0 basechar 0
AnchorPoint: "ogonek" 340 0 basechar 0
AnchorPoint: "top" 285 518 basechar 0
LayerCount: 2
Fore
SplineSet
288 -11 m 256
 432 -11 477 16 490 138 c 257
 409 138 l 257
 401 60 374 60 288 60 c 256
 190 60 164 90 164 174 c 258
 164 247 l 257
 491 247 l 257
 491 370 l 258
 491 468 426 527 284 527 c 256
 136 527 72 461 72 363 c 258
 72 183 l 258
 72 54 134 -11 288 -11 c 256
164 309 m 257
 164 371 l 258
 164 435 211 457 284 457 c 256
 355 457 402 442 402 380 c 258
 402 309 l 257
 164 309 l 257
EndSplineSet
EndChar

StartChar: eight
Encoding: 56 56 252
Width: 610
VWidth: 0
Flags: HW
PickledData: "(dp1
S'org.robofab.postScriptHintData'
p2
(dp3
s."
LayerCount: 2
Fore
SplineSet
303 -11 m 256
 449 -11 546 50 546 179 c 256
 546 283 473 343 396 377 c 257
 470 411 532 450 532 541 c 256
 532 671 429 717 306 717 c 256
 181 717 78 671 78 541 c 256
 78 450 140 411 214 377 c 257
 137 343 64 283 64 179 c 256
 64 50 159 -11 303 -11 c 256
306 68 m 256
 213 68 158 98 158 182 c 256
 158 259 225 297 305 336 c 257
 384 297 453 259 453 182 c 256
 453 98 398 68 306 68 c 256
305 413 m 257
 234 447 173 478 173 541 c 256
 173 601 208 638 306 638 c 256
 403 638 437 601 437 541 c 256
 437 478 376 448 305 413 c 257
EndSplineSet
EndChar

StartChar: emdash
Encoding: 405 8212 256
Width: 537
VWidth: 0
Flags: HW
PickledData: "(dp1
S'org.robofab.postScriptHintData'
p2
(dp3
s."
LayerCount: 2
Fore
SplineSet
1 196 m 257
 536 196 l 257
 536 268 l 257
 1 268 l 257
 1 196 l 257
EndSplineSet
EndChar

StartChar: emptyset
Encoding: 406 8709 257
Width: 757
VWidth: 0
Flags: HW
PickledData: "(dp1
S'org.robofab.postScriptHintData'
p2
(dp3
s."
LayerCount: 2
Fore
SplineSet
380 82 m 256
 237 82 132 189 132 333 c 256
 132 476 237 584 380 584 c 256
 524 584 626 476 626 333 c 256
 626 189 524 82 380 82 c 256
379 32 m 256
 549 32 680 162 680 333 c 256
 680 503 549 633 379 633 c 256
 210 633 78 503 78 333 c 256
 78 162 210 32 379 32 c 256
101 26 m 257
 134 -1 l 257
 660 625 l 257
 627 653 l 257
 101 26 l 257
EndSplineSet
EndChar

StartChar: endash
Encoding: 407 8211 258
Width: 263
VWidth: 0
Flags: HW
PickledData: "(dp1
S'org.robofab.postScriptHintData'
p2
(dp3
s."
LayerCount: 2
Fore
SplineSet
1 296 m 257
 261 296 l 257
 261 357 l 257
 1 357 l 257
 1 296 l 257
EndSplineSet
EndChar

StartChar: eng
Encoding: 408 331 259
Width: 598
VWidth: 0
Flags: HW
PickledData: "(dp1
S'org.robofab.postScriptHintData'
p2
(dp3
s."
LayerCount: 2
Fore
SplineSet
313 -154 m 257
 482 -154 513 -79 513 107 c 258
 513 376 l 258
 513 458 463 527 336 527 c 256
 261 527 213 502 183 467 c 257
 183 518 l 257
 91 518 l 257
 91 0 l 257
 183 0 l 257
 183 369 l 258
 183 419 222 457 312 457 c 256
 376 457 421 432 421 381 c 258
 421 104 l 258
 421 -48 420 -85 299 -85 c 257
 313 -154 l 257
EndSplineSet
EndChar

StartChar: equal
Encoding: 61 61 261
Width: 610
VWidth: 0
Flags: HW
PickledData: "(dp1
S'org.robofab.postScriptHintData'
p2
(dp3
s."
LayerCount: 2
Fore
SplineSet
109 228 m 257
 501 228 l 257
 501 300 l 257
 109 300 l 257
 109 228 l 257
109 393 m 257
 501 393 l 257
 501 465 l 257
 109 465 l 257
 109 393 l 257
EndSplineSet
EndChar

StartChar: estimated
Encoding: 410 8494 262
Width: 585
VWidth: 0
Flags: HW
PickledData: "(dp1
S'org.robofab.postScriptHintData'
p2
(dp3
s."
LayerCount: 2
Fore
SplineSet
312 591 m 256
 370 591 426 567 458 520 c 257
 458 386 l 257
 159 386 l 257
 159 521 l 257
 194 567 254 591 312 591 c 256
46 356 m 256
 46 201 137 87 323 87 c 256
 424 87 490 130 538 188 c 257
 513 213 l 257
 461 157 389 129 321 129 c 256
 259 129 199 152 159 198 c 257
 159 347 l 257
 542 347 l 257
 542 513 466 625 311 625 c 256
 155 625 46 508 46 356 c 256
EndSplineSet
EndChar

StartChar: eth
Encoding: 411 240 263
Width: 565
VWidth: 0
Flags: HW
PickledData: "(dp1
S'org.robofab.postScriptHintData'
p2
(dp3
s."
LayerCount: 2
Fore
SplineSet
287 -10 m 256
 474 -10 493 83 493 178 c 258
 493 359 l 258
 493 516 451 641 338 697 c 257
 387 764 l 257
 340 790 l 257
 291 718 l 257
 257 726 225 729 197 729 c 256
 161 729 133 724 116 721 c 257
 103 659 l 257
 120 660 141 662 166 662 c 256
 191 662 218 660 247 655 c 257
 184 562 l 257
 230 537 l 257
 299 637 l 257
 359 605 401 543 401 445 c 257
 388 456 339 476 282 476 c 256
 154 476 73 413 73 315 c 258
 73 153 l 258
 73 57 133 -10 287 -10 c 256
287 59 m 256
 215 59 165 81 165 150 c 258
 165 318 l 258
 165 382 216 407 287 407 c 256
 316 407 380 397 403 382 c 257
 403 161 l 258
 403 104 392 59 287 59 c 256
EndSplineSet
EndChar

StartChar: exclam
Encoding: 33 33 265
Width: 375
VWidth: 0
Flags: HW
PickledData: "(dp1
S'org.robofab.postScriptHintData'
p2
(dp3
s."
LayerCount: 2
Fore
SplineSet
137 0 m 257
 236 0 l 257
 236 101 l 257
 137 101 l 257
 137 0 l 257
172 181 m 257
 200 181 l 257
 200 181 238 518 238 706 c 257
 140 706 l 257
 140 518 172 181 172 181 c 257
EndSplineSet
EndChar

StartChar: f
Encoding: 102 102 267
Width: 381
VWidth: 0
Flags: HW
PickledData: "(dp1
S'org.robofab.postScriptHintData'
p2
(dp3
s."
AnchorPoint: "top" 189 706 basechar 0
LayerCount: 2
Fore
SplineSet
136 0 m 257
 228 0 l 257
 228 448 l 257
 354 448 l 257
 354 518 l 257
 228 518 l 257
 228 605 l 258
 228 642 247 670 303 670 c 258
 359 670 l 257
 354 735 l 257
 295 735 l 258
 189 735 136 693 136 596 c 258
 136 518 l 257
 50 518 l 257
 50 448 l 257
 136 448 l 257
 136 0 l 257
EndSplineSet
EndChar

StartChar: uni02C9
Encoding: 421 713 276
Width: 250
VWidth: 0
Flags: HW
AnchorPoint: "top" 125 518 mark 0
AnchorPoint: "mid" 125 681 mark 0
LayerCount: 2
Fore
SplineSet
-4 645 m 257
 254 645 l 257
 254 717 l 257
 -4 717 l 257
 -4 645 l 257
EndSplineSet
EndChar

StartChar: five
Encoding: 53 53 277
Width: 610
VWidth: 0
Flags: HW
PickledData: "(dp1
S'org.robofab.postScriptHintData'
p2
(dp3
s."
LayerCount: 2
Fore
SplineSet
309 -11 m 256
 452 -11 545 82 545 219 c 256
 545 358 473 445 327 445 c 256
 278 445 229 428 198 400 c 257
 219 625 l 257
 500 625 l 257
 500 706 l 257
 140 706 l 257
 115 348 l 257
 187 318 l 257
 237 355 267 372 315 372 c 256
 413 372 453 309 453 214 c 256
 453 120 397 68 305 68 c 256
 205 68 161 93 110 127 c 257
 84 52 l 257
 135 22 200 -11 309 -11 c 256
EndSplineSet
EndChar

StartChar: florin
Encoding: 424 402 280
Width: 434
VWidth: 0
Flags: HW
PickledData: "(dp1
S'org.robofab.postScriptHintData'
p2
(dp3
s."
LayerCount: 2
Fore
SplineSet
123 -93 m 256
 221 -93 254 -48 254 44 c 258
 254 355 l 257
 317 355 l 257
 317 419 l 257
 254 419 l 257
 254 575 l 258
 254 617 265 652 332 652 c 256
 337 652 342 651 347 651 c 257
 347 712 l 257
 328 714 311 715 296 715 c 256
 194 715 163 670 163 564 c 258
 163 419 l 257
 105 419 l 257
 105 355 l 257
 163 355 l 257
 163 31 l 258
 163 -9 146 -30 92 -30 c 256
 85 -30 77 -30 69 -29 c 257
 69 -89 l 257
 89 -91 107 -93 123 -93 c 256
EndSplineSet
EndChar

StartChar: foundryicon
Encoding: 425 -1 281
Width: 657
VWidth: 0
Flags: HW
PickledData: "(dp1
S'org.robofab.postScriptHintData'
p2
(dp3
s."
LayerCount: 2
Fore
SplineSet
237 198 m 257
 237 328 l 257
 289 328 l 257
 372 255 l 257
 372 328 l 257
 423 328 l 257
 423 198 l 257
 372 198 l 257
 289 270 l 257
 289 198 l 257
 237 198 l 257
137 1 m 257
 327 136 l 257
 521 1 l 257
 450 225 l 257
 641 369 l 257
 404 369 l 257
 327 593 l 257
 253 369 l 257
 17 369 l 257
 207 225 l 257
 137 1 l 257
EndSplineSet
EndChar

StartChar: four
Encoding: 52 52 282
Width: 610
VWidth: 0
Flags: HW
PickledData: "(dp1
S'org.robofab.postScriptHintData'
p2
(dp3
s."
LayerCount: 2
Fore
SplineSet
382 0 m 257
 464 0 l 257
 464 171 l 257
 567 171 l 257
 567 247 l 257
 464 247 l 257
 464 409 l 257
 382 409 l 257
 382 247 l 257
 179 247 l 257
 430 706 l 257
 328 706 l 257
 70 248 l 257
 70 171 l 257
 382 171 l 257
 382 0 l 257
EndSplineSet
Substitution2: "'sups' Superscript lookup 10 subtable" uni2074
EndChar

StartChar: uni2074
Encoding: 426 8308 283
Width: 512
VWidth: 0
Flags: HW
PickledData: "(dp1
S'org.robofab.postScriptHintData'
p2
(dp3
s."
LayerCount: 2
Fore
SplineSet
290 339 m 257
 348 339 l 257
 348 428 l 257
 410 428 l 257
 410 478 l 257
 348 478 l 257
 348 579 l 257
 290 579 l 257
 290 478 l 257
 171 478 l 257
 336 754 l 257
 268 754 l 257
 92 475 l 257
 92 428 l 257
 290 428 l 257
 290 339 l 257
EndSplineSet
EndChar

StartChar: fraction
Encoding: 427 8260 284
Width: 375
VWidth: 0
Flags: HW
PickledData: "(dp1
S'org.robofab.postScriptHintData'
p2
(dp3
s."
LayerCount: 2
Fore
SplineSet
8 0 m 257
 99 0 l 257
 367 735 l 257
 278 735 l 257
 8 0 l 257
EndSplineSet
EndChar

StartChar: g
Encoding: 103 103 285
Width: 577
VWidth: 0
Flags: HW
PickledData: "(dp1
S'org.robofab.postScriptHintData'
p2
(dp3
s."
AnchorPoint: "top" 276 518 basechar 0
LayerCount: 2
Fore
SplineSet
294 -199 m 256
 431 -199 493 -109 493 12 c 258
 493 518 l 257
 401 518 l 257
 401 476 l 257
 386 500 322 527 269 527 c 256
 134 527 72 459 72 355 c 258
 72 185 l 258
 72 78 137 20 269 20 c 256
 305 20 372 30 401 57 c 257
 401 -15 l 258
 401 -92 365 -129 275 -129 c 256
 226 -129 172 -121 144 -111 c 257
 124 -180 l 257
 162 -194 224 -199 294 -199 c 256
283 90 m 256
 216 90 164 109 164 171 c 258
 164 365 l 258
 164 428 210 457 282 457 c 256
 364 457 401 431 401 386 c 258
 401 129 l 257
 386 117 351 90 283 90 c 256
EndSplineSet
EndChar

StartChar: germandbls
Encoding: 223 223 292
Width: 625
VWidth: 0
Flags: HW
PickledData: "(dp1
S'org.robofab.postScriptHintData'
p2
(dp3
s."
LayerCount: 2
Fore
SplineSet
93 0 m 257
 185 0 l 257
 185 552 l 258
 185 637 243 650 314 650 c 256
 381 650 424 632 424 546 c 256
 424 483 399 445 293 445 c 257
 293 376 l 257
 409 376 484 363 484 237 c 256
 484 89 384 82 253 72 c 257
 262 0 l 257
 460 0 569 58 569 238 c 256
 569 384 497 405 440 429 c 257
 493 444 516 478 516 554 c 256
 516 658 455 724 318 724 c 256
 193 724 93 685 93 539 c 258
 93 0 l 257
EndSplineSet
EndChar

StartChar: grave
Encoding: 96 96 293
Width: 300
VWidth: 0
Flags: HW
PickledData: "(dp1
S'org.robofab.postScriptHintData'
p2
(dp3
s."
AnchorPoint: "top" 166 518 mark 0
LayerCount: 2
Fore
SplineSet
12 774 m 257
 127 588 l 257
 189 588 l 257
 122 774 l 257
 12 774 l 257
EndSplineSet
EndChar

StartChar: greater
Encoding: 62 62 294
Width: 610
VWidth: 0
Flags: HW
PickledData: "(dp1
S'org.robofab.postScriptHintData'
p2
(dp3
s."
LayerCount: 2
Fore
SplineSet
102 0 m 257
 534 230 l 257
 534 329 l 257
 102 559 l 257
 102 457 l 257
 458 279 l 257
 102 99 l 257
 102 0 l 257
EndSplineSet
EndChar

StartChar: guillemotleft
Encoding: 434 171 296
Width: 514
VWidth: 0
Flags: HW
PickledData: "(dp1
S'org.robofab.postScriptHintData'
p2
(dp3
s."
LayerCount: 2
Fore
SplineSet
184 39 m 257
 252 73 l 257
 151 259 l 257
 252 444 l 257
 180 479 l 257
 47 259 l 257
 184 39 l 257
386 39 m 257
 453 73 l 257
 353 259 l 257
 453 444 l 257
 382 479 l 257
 249 259 l 257
 386 39 l 257
EndSplineSet
EndChar

StartChar: guillemotright
Encoding: 435 187 297
Width: 514
VWidth: 0
Flags: HW
PickledData: "(dp1
S'org.robofab.postScriptHintData'
p2
(dp3
s."
LayerCount: 2
Fore
SplineSet
132 39 m 257
 266 259 l 257
 129 479 l 257
 62 444 l 257
 162 259 l 257
 62 73 l 257
 132 39 l 257
334 39 m 257
 468 259 l 257
 331 479 l 257
 263 444 l 257
 364 259 l 257
 263 73 l 257
 334 39 l 257
EndSplineSet
EndChar

StartChar: guilsinglleft
Encoding: 436 8249 298
Width: 375
VWidth: 0
Flags: HW
PickledData: "(dp1
S'org.robofab.postScriptHintData'
p2
(dp3
s."
LayerCount: 2
Fore
SplineSet
222 39 m 257
 290 73 l 257
 189 259 l 257
 290 444 l 257
 218 479 l 257
 85 259 l 257
 222 39 l 257
EndSplineSet
EndChar

StartChar: guilsinglright
Encoding: 437 8250 299
Width: 375
VWidth: 0
Flags: HW
PickledData: "(dp1
S'org.robofab.postScriptHintData'
p2
(dp3
s."
LayerCount: 2
Fore
SplineSet
160 39 m 257
 293 259 l 257
 156 479 l 257
 88 444 l 257
 189 259 l 257
 88 73 l 257
 160 39 l 257
EndSplineSet
EndChar

StartChar: h
Encoding: 104 104 300
Width: 597
VWidth: 0
Flags: HW
PickledData: "(dp1
S'org.robofab.postScriptHintData'
p2
(dp3
s."
AnchorPoint: "mid" 139 623 basechar 0
AnchorPoint: "top" 335 518 basechar 0
LayerCount: 2
Fore
SplineSet
91 0 m 257
 183 0 l 257
 183 370 l 258
 183 420 223 457 313 457 c 256
 377 457 421 433 421 382 c 258
 421 0 l 257
 513 0 l 257
 513 377 l 258
 513 459 464 527 337 527 c 256
 262 527 213 504 183 469 c 257
 183 735 l 257
 91 735 l 257
 91 0 l 257
EndSplineSet
EndChar

StartChar: hbar
Encoding: 438 295 301
Width: 597
VWidth: 0
Flags: HW
PickledData: "(dp1
S'org.robofab.postScriptHintData'
p2
(dp3
s."
LayerCount: 2
Fore
SplineSet
14 610 m 257
 412 610 l 257
 412 670 l 257
 14 670 l 257
 14 610 l 257
EndSplineSet
Refer: 300 104 N 1 0 0 1 0 0 2
EndChar

StartChar: hungarumlaut
Encoding: 440 733 303
Width: 500
VWidth: 0
Flags: HW
PickledData: "(dp1
S'org.robofab.postScriptHintData'
p2
(dp3
s."
AnchorPoint: "top" 206 518 mark 0
LayerCount: 2
Fore
SplineSet
80 631 m 257
 143 631 l 257
 257 817 l 257
 147 817 l 257
 80 631 l 257
280 631 m 257
 343 631 l 257
 458 817 l 257
 348 817 l 257
 280 631 l 257
EndSplineSet
EndChar

StartChar: hyphen
Encoding: 45 45 304
Width: 500
VWidth: 0
Flags: HW
PickledData: "(dp1
S'org.robofab.postScriptHintData'
p2
(dp3
s."
AnchorPoint: "mid" 248 277 mark 0
LayerCount: 2
Fore
SplineSet
84 244 m 257
 406 244 l 257
 406 313 l 257
 84 313 l 257
 84 244 l 257
EndSplineSet
EndChar

StartChar: infinity
Encoding: 448 8734 317
Width: 805
VWidth: 0
Flags: HW
PickledData: "(dp1
S'org.robofab.postScriptHintData'
p2
(dp3
s."
LayerCount: 2
Fore
SplineSet
180 237 m 256
 267 237 399 359 399 359 c 257
 399 359 538 237 625 237 c 256
 724 237 774 318 774 400 c 256
 774 483 724 565 625 565 c 256
 538 565 399 456 399 456 c 257
 399 456 267 565 180 565 c 256
 81 565 31 483 31 401 c 256
 31 319 81 237 180 237 c 256
184 301 m 256
 133 301 107 351 107 401 c 256
 107 451 133 501 184 501 c 256
 220 501 350 405 350 405 c 257
 350 405 220 301 184 301 c 256
616 301 m 256
 580 301 449 403 449 403 c 257
 449 403 580 501 616 501 c 256
 667 501 692 451 692 401 c 256
 692 351 667 301 616 301 c 256
EndSplineSet
EndChar

StartChar: integral
Encoding: 449 8747 318
Width: 434
VWidth: 0
Flags: HW
PickledData: "(dp1
S'org.robofab.postScriptHintData'
p2
(dp3
s."
LayerCount: 2
Fore
SplineSet
123 -186 m 256
 221 -186 254 -140 254 -48 c 258
 254 577 l 258
 254 619 265 654 332 654 c 256
 337 654 342 653 347 653 c 257
 347 714 l 257
 328 716 311 717 296 717 c 256
 194 717 163 672 163 566 c 258
 163 -62 l 258
 163 -102 146 -123 92 -123 c 256
 85 -123 77 -123 69 -122 c 257
 69 -182 l 257
 89 -184 107 -186 123 -186 c 256
EndSplineSet
EndChar

StartChar: k
Encoding: 107 107 324
Width: 559
VWidth: 0
Flags: HW
PickledData: "(dp1
S'org.robofab.postScriptHintData'
p2
(dp3
s."
AnchorPoint: "bot" 306 0 basechar 0
AnchorPoint: "top" 300 518 basechar 0
LayerCount: 2
Fore
SplineSet
91 0 m 257
 183 0 l 257
 183 163 l 257
 260 240 l 257
 446 0 l 257
 552 0 l 257
 320 290 l 257
 531 518 l 257
 430 518 l 257
 183 256 l 257
 183 735 l 257
 91 735 l 257
 91 0 l 257
EndSplineSet
EndChar

StartChar: kgreenlandic
Encoding: 456 312 327
Width: 560
VWidth: 0
Flags: HW
PickledData: "(dp1
S'org.robofab.postScriptHintData'
p2
(dp3
s."
LayerCount: 2
Fore
SplineSet
91 0 m 257
 183 0 l 257
 183 173 l 257
 254 243 l 257
 442 0 l 257
 548 0 l 257
 325 285 l 257
 527 518 l 257
 425 518 l 257
 342 429 266 338 183 249 c 257
 183 518 l 257
 91 518 l 257
 91 0 l 257
EndSplineSet
EndChar

StartChar: l
Encoding: 108 108 328
Width: 337
VWidth: 0
Flags: HW
PickledData: "(dp1
S'org.robofab.postScriptHintData'
p2
(dp3
s."
AnchorPoint: "bot" 186 0 basechar 0
AnchorPoint: "caron.alt" 114 518 basechar 0
AnchorPoint: "top" 147 735 basechar 0
LayerCount: 2
Fore
SplineSet
259 -4 m 258
 285 -4 l 257
 296 73 l 257
 280 73 l 258
 203 73 185 90 185 174 c 258
 185 735 l 257
 93 735 l 257
 93 175 l 258
 93 24 146 -4 259 -4 c 258
EndSplineSet
EndChar

StartChar: less
Encoding: 60 60 333
Width: 610
VWidth: 0
Flags: HW
PickledData: "(dp1
S'org.robofab.postScriptHintData'
p2
(dp3
s."
LayerCount: 2
Fore
SplineSet
509 0 m 257
 509 102 l 257
 152 280 l 257
 509 459 l 257
 509 559 l 257
 76 328 l 257
 76 230 l 257
 509 0 l 257
EndSplineSet
EndChar

StartChar: logicalnot
Encoding: 463 172 336
Width: 421
VWidth: 0
Flags: HW
PickledData: "(dp1
S'org.robofab.postScriptHintData'
p2
(dp3
s."
LayerCount: 2
Fore
SplineSet
288 163 m 257
 352 163 l 257
 352 338 l 257
 48 338 l 257
 48 271 l 257
 288 271 l 257
 288 163 l 257
EndSplineSet
EndChar

StartChar: lozenge
Encoding: 464 9674 337
Width: 539
VWidth: 0
Flags: HW
PickledData: "(dp1
S'org.robofab.postScriptHintData'
p2
(dp3
s."
LayerCount: 2
Fore
SplineSet
234 0 m 257
 317 0 l 257
 482 354 l 257
 317 706 l 257
 234 706 l 257
 57 354 l 257
 234 0 l 257
277 78 m 257
 144 354 l 257
 277 623 l 257
 397 354 l 257
 277 78 l 257
EndSplineSet
EndChar

StartChar: lslash
Encoding: 465 322 338
Width: 345
VWidth: 0
Flags: HW
PickledData: "(dp1
S'org.robofab.postScriptHintData'
p2
(dp3
s."
LayerCount: 2
Fore
SplineSet
25 301 m 257
 295 433 l 257
 295 494 l 257
 25 361 l 257
 25 301 l 257
EndSplineSet
Refer: 328 108 N 1 0 0 1 0 0 2
EndChar

StartChar: m
Encoding: 109 109 339
Width: 908
VWidth: 0
Flags: HW
PickledData: "(dp1
S'org.robofab.postScriptHintData'
p2
(dp3
s."
AnchorPoint: "top" 485 518 basechar 0
LayerCount: 2
Fore
SplineSet
91 0 m 257
 183 0 l 257
 183 369 l 258
 183 419 218 457 308 457 c 256
 372 457 412 432 412 381 c 258
 412 0 l 257
 504 0 l 257
 504 369 l 258
 504 419 539 457 629 457 c 256
 693 457 730 432 730 381 c 258
 730 0 l 257
 822 0 l 257
 822 376 l 258
 822 458 779 527 652 527 c 256
 577 527 528 503 483 459 c 257
 459 500 411 527 331 527 c 256
 256 527 213 502 183 467 c 257
 183 518 l 257
 91 518 l 257
 91 0 l 257
EndSplineSet
EndChar

StartChar: macron
Encoding: 466 175 340
Width: 250
VWidth: 0
Flags: HW
PickledData: "(dp1
S'org.robofab.postScriptHintData'
p2
(dp3
s."
AnchorPoint: "top" 125 518 mark 0
AnchorPoint: "mid" 125 681 mark 0
LayerCount: 2
Fore
SplineSet
-4 645 m 257
 254 645 l 257
 254 717 l 257
 -4 717 l 257
 -4 645 l 257
EndSplineSet
EndChar

StartChar: minus
Encoding: 468 8722 343
Width: 444
VWidth: 0
Flags: HW
PickledData: "(dp1
S'org.robofab.postScriptHintData'
p2
(dp3
s."
LayerCount: 2
Fore
SplineSet
69 214 m 257
 375 214 l 257
 375 297 l 257
 69 297 l 257
 69 214 l 257
EndSplineSet
EndChar

StartChar: multiply
Encoding: 470 215 345
Width: 475
VWidth: 0
Flags: HW
PickledData: "(dp1
S'org.robofab.postScriptHintData'
p2
(dp3
s."
LayerCount: 2
Fore
SplineSet
117 105 m 257
 238 224 l 257
 359 105 l 257
 412 168 l 257
 297 281 l 257
 412 394 l 257
 359 458 l 257
 238 339 l 257
 117 458 l 257
 63 394 l 257
 179 281 l 257
 63 168 l 257
 117 105 l 257
EndSplineSet
EndChar

StartChar: n
Encoding: 110 110 346
Width: 597
VWidth: 0
Flags: HW
PickledData: "(dp1
S'org.robofab.postScriptHintData'
p2
(dp3
s."
AnchorPoint: "bot" 299 0 basechar 0
AnchorPoint: "top" 334 518 basechar 0
LayerCount: 2
Fore
SplineSet
91 0 m 257
 183 0 l 257
 183 369 l 258
 183 419 222 457 312 457 c 256
 376 457 421 432 421 381 c 258
 421 0 l 257
 513 0 l 257
 513 376 l 258
 513 458 463 527 336 527 c 256
 261 527 213 502 183 467 c 257
 183 518 l 257
 91 518 l 257
 91 0 l 257
EndSplineSet
EndChar

StartChar: nine
Encoding: 57 57 351
Width: 610
VWidth: 0
Flags: HW
PickledData: "(dp1
S'org.robofab.postScriptHintData'
p2
(dp3
s."
LayerCount: 2
Fore
SplineSet
220 0 m 257
 318 0 l 257
 471 268 l 257
 517 351 540 429 540 498 c 256
 540 654 446 717 311 717 c 256
 176 717 74 655 74 500 c 256
 74 339 163 277 308 277 c 256
 337 277 374 286 395 295 c 257
 220 0 l 257
310 357 m 256
 223 357 165 380 165 500 c 256
 165 610 222 638 310 638 c 256
 398 638 449 610 449 499 c 256
 449 391 398 357 310 357 c 256
EndSplineSet
EndChar

StartChar: notequal
Encoding: 476 8800 353
Width: 375
VWidth: 0
Flags: HW
PickledData: "(dp1
S'org.robofab.postScriptHintData'
p2
(dp3
s."
LayerCount: 2
Fore
SplineSet
62 100 m 257
 134 100 l 257
 318 579 l 257
 249 579 l 257
 62 100 l 257
EndSplineSet
Refer: 261 61 N 1 0 0 1 -118 0 2
EndChar

StartChar: numbersign
Encoding: 35 35 355
Width: 626
VWidth: 0
Flags: HW
PickledData: "(dp1
S'org.robofab.postScriptHintData'
p2
(dp3
s."
LayerCount: 2
Fore
SplineSet
88 0 m 257
 175 0 l 257
 216 232 l 257
 361 232 l 257
 319 0 l 257
 406 0 l 257
 447 232 l 257
 573 232 l 257
 573 290 l 257
 457 290 l 257
 484 444 l 257
 585 444 l 257
 585 502 l 257
 495 502 l 257
 531 706 l 257
 448 706 l 257
 411 502 l 257
 264 502 l 257
 300 706 l 257
 217 706 l 257
 180 502 l 257
 54 502 l 257
 54 444 l 257
 169 444 l 257
 141 290 l 257
 42 290 l 257
 42 232 l 257
 130 232 l 257
 88 0 l 257
226 290 m 257
 253 444 l 257
 400 444 l 257
 372 290 l 257
 226 290 l 257
EndSplineSet
EndChar

StartChar: o
Encoding: 111 111 356
Width: 573
VWidth: 0
Flags: HW
PickledData: "(dp1
S'org.robofab.postScriptHintData'
p2
(dp3
s."
AnchorPoint: "bot" 290 0 basechar 0
AnchorPoint: "ogonek" 310 0 basechar 0
AnchorPoint: "top" 286 518 basechar 0
LayerCount: 2
Fore
SplineSet
287 60 m 256
 214 60 164 82 164 146 c 258
 164 370 l 258
 164 434 214 457 287 457 c 256
 359 457 409 434 409 370 c 258
 409 146 l 258
 409 82 359 60 287 60 c 256
287 -11 m 256
 441 -11 501 58 501 154 c 258
 501 362 l 258
 501 458 441 527 287 527 c 256
 131 527 72 458 72 362 c 258
 72 154 l 258
 72 58 131 -11 287 -11 c 256
EndSplineSet
EndChar

StartChar: oe
Encoding: 480 339 363
Width: 846
VWidth: 0
Flags: HW
PickledData: "(dp1
S'org.robofab.postScriptHintData'
p2
(dp3
s."
AnchorPoint: "top" 423 0 basechar 0
LayerCount: 2
Fore
SplineSet
278 -10 m 256
 357 -10 401 17 431 60 c 257
 462 18 515 -10 585 -10 c 256
 727 -10 773 36 783 162 c 257
 700 162 l 257
 694 73 666 59 585 59 c 256
 513 59 478 91 478 160 c 258
 478 247 l 257
 783 247 l 257
 783 370 l 258
 783 468 720 527 585 527 c 256
 514 527 463 509 431 464 c 257
 397 509 345 527 278 527 c 256
 150 527 73 463 73 365 c 258
 73 155 l 258
 73 59 124 -10 278 -10 c 256
278 59 m 256
 206 59 165 83 165 147 c 258
 165 373 l 258
 165 437 210 458 278 458 c 256
 349 458 386 434 386 373 c 258
 386 147 l 258
 386 84 346 59 278 59 c 256
478 309 m 257
 478 371 l 258
 478 435 512 458 585 458 c 256
 656 458 694 442 694 380 c 258
 694 309 l 257
 478 309 l 257
EndSplineSet
EndChar

StartChar: ogonek
Encoding: 481 731 364
Width: 250
VWidth: 0
Flags: HW
PickledData: "(dp1
S'org.robofab.postScriptHintData'
p2
(dp3
s."
AnchorPoint: "ogonek" 157 0 mark 0
LayerCount: 2
Fore
SplineSet
199 -232 m 257
 199 -185 l 257
 137 -185 116 -157 116 -120 c 256
 116 -78 142 -26 175 5 c 257
 145 5 l 257
 82 -49 56 -98 56 -137 c 256
 56 -195 112 -232 199 -232 c 257
EndSplineSet
EndChar

StartChar: one
Encoding: 49 49 369
Width: 610
VWidth: 0
Flags: HW
PickledData: "(dp1
S'org.robofab.postScriptHintData'
p2
(dp3
s."
LayerCount: 2
Fore
SplineSet
101 0 m 257
 567 0 l 257
 567 76 l 257
 395 76 l 257
 395 706 l 257
 314 706 l 257
 105 682 l 257
 114 604 l 257
 296 624 l 257
 296 76 l 257
 101 76 l 257
 101 0 l 257
EndSplineSet
Substitution2: "'sups' Superscript lookup 10 subtable" uni00B9
EndChar

StartChar: onehalf
Encoding: 485 189 370
Width: 999
VWidth: 0
Flags: HW
PickledData: "(dp1
S'org.robofab.postScriptHintData'
p2
(dp3
s."
LayerCount: 2
Fore
SplineSet
669 1 m 257
 919 1 l 257
 919 49 l 257
 738 49 l 257
 842 166 l 258
 882 211 917 242 917 305 c 256
 917 370 876 423 788 423 c 256
 705 423 650 385 650 295 c 257
 708 295 l 257
 708 361 729 374 789 374 c 256
 839 374 860 351 860 305 c 256
 860 265 843 246 802 202 c 257
 664 46 l 257
 669 1 l 257
80 319 m 257
 391 319 l 257
 391 369 l 257
 278 369 l 257
 278 735 l 257
 226 735 l 257
 83 719 l 257
 89 668 l 257
 214 681 l 257
 214 369 l 257
 80 369 l 257
 80 319 l 257
335 0 m 257
 400 0 l 257
 731 706 l 257
 669 706 l 257
 335 0 l 257
EndSplineSet
Ligature2: "'frac' Diagonal Fractions lookup 11 subtable" one slash two
EndChar

StartChar: onequarter
Encoding: 486 188 371
Width: 999
VWidth: 0
Flags: HW
PickledData: "(dp1
S'org.robofab.postScriptHintData'
p2
(dp3
s."
LayerCount: 2
Fore
SplineSet
808 0 m 257
 863 0 l 257
 863 101 l 257
 934 101 l 257
 934 146 l 257
 863 146 l 257
 863 260 l 257
 808 260 l 257
 808 146 l 257
 670 146 l 257
 840 436 l 257
 771 436 l 257
 596 146 l 257
 596 101 l 257
 808 101 l 257
 808 0 l 257
80 319 m 257
 391 319 l 257
 391 369 l 257
 278 369 l 257
 278 735 l 257
 226 735 l 257
 83 719 l 257
 89 668 l 257
 214 681 l 257
 214 369 l 257
 80 369 l 257
 80 319 l 257
335 0 m 257
 400 0 l 257
 731 706 l 257
 669 706 l 257
 335 0 l 257
EndSplineSet
Ligature2: "'frac' Diagonal Fractions lookup 11 subtable" one slash four
EndChar

StartChar: uni00B9
Encoding: 487 185 372
Width: 512
VWidth: 0
Flags: HW
PickledData: "(dp1
S'org.robofab.postScriptHintData'
p2
(dp3
s."
LayerCount: 2
Fore
SplineSet
101 339 m 257
 412 339 l 257
 412 388 l 257
 299 388 l 257
 299 754 l 257
 247 754 l 257
 104 738 l 257
 110 688 l 257
 235 700 l 257
 235 388 l 257
 101 388 l 257
 101 339 l 257
EndSplineSet
EndChar

StartChar: oslash
Encoding: 248 248 376
Width: 573
VWidth: 0
Flags: HW
PickledData: "(dp1
S'org.robofab.postScriptHintData'
p2
(dp3
s."
AnchorPoint: "top" 287 518 basechar 0
LayerCount: 2
Fore
SplineSet
177 -110 m 257
 440 596 l 257
 396 611 l 257
 132 -95 l 257
 177 -110 l 257
EndSplineSet
Refer: 356 111 N 1 0 0 1 0 0 2
EndChar

StartChar: p
Encoding: 112 112 379
Width: 584
VWidth: 0
Flags: HW
PickledData: "(dp1
S'org.robofab.postScriptHintData'
p2
(dp3
s."
AnchorPoint: "top" 316 518 basechar 0
LayerCount: 2
Fore
SplineSet
91 -199 m 257
 183 -199 l 257
 183 17 l 257
 208 4 247 -11 305 -11 c 256
 440 -11 513 64 513 168 c 258
 513 356 l 258
 513 456 448 527 316 527 c 256
 257 527 201 503 174 479 c 257
 163 518 l 257
 91 518 l 257
 91 -199 l 257
299 60 m 256
 246 60 206 74 183 87 c 257
 183 402 l 257
 191 415 237 457 302 457 c 256
 369 457 421 425 421 363 c 258
 421 158 l 258
 421 95 371 60 299 60 c 256
EndSplineSet
EndChar

StartChar: paragraph
Encoding: 182 182 380
Width: 610
VWidth: 0
Flags: HW
PickledData: "(dp1
S'org.robofab.postScriptHintData'
p2
(dp3
s."
LayerCount: 2
Fore
SplineSet
262 -103 m 257
 335 -103 l 257
 335 653 l 257
 403 653 l 257
 403 -103 l 257
 469 -103 l 257
 469 706 l 257
 279 706 l 258
 184 706 82 669 82 564 c 256
 82 476 178 427 262 425 c 257
 262 -103 l 257
EndSplineSet
EndChar

StartChar: parenleft
Encoding: 40 40 381
Width: 375
VWidth: 0
Flags: HW
PickledData: "(dp1
S'org.robofab.postScriptHintData'
p2
(dp3
s."
LayerCount: 2
Fore
SplineSet
314 -73 m 257
 314 0 l 257
 178 0 178 75 178 200 c 258
 178 486 l 258
 178 611 178 691 314 691 c 257
 314 765 l 257
 85 765 84 617 84 468 c 258
 84 215 l 258
 84 68 85 -73 314 -73 c 257
EndSplineSet
EndChar

StartChar: parenright
Encoding: 41 41 382
Width: 375
VWidth: 0
Flags: HW
PickledData: "(dp1
S'org.robofab.postScriptHintData'
p2
(dp3
s."
LayerCount: 2
Fore
SplineSet
61 -73 m 257
 290 -73 291 75 291 224 c 258
 291 477 l 258
 291 624 290 765 61 765 c 257
 61 692 l 257
 197 692 197 617 197 492 c 258
 197 206 l 258
 197 81 197 0 61 0 c 257
 61 -73 l 257
EndSplineSet
EndChar

StartChar: partialdiff
Encoding: 492 8706 383
Width: 586
VWidth: 0
Flags: HW
PickledData: "(dp1
S'org.robofab.postScriptHintData'
p2
(dp3
s."
LayerCount: 2
Fore
SplineSet
229 -10 m 256
 401 -10 516 188 516 446 c 256
 516 647 409 736 283 736 c 256
 230 736 174 720 120 691 c 257
 132 661 l 257
 168 678 206 687 242 687 c 256
 339 687 421 621 421 473 c 256
 421 467 421 461 421 455 c 257
 198 452 74 278 74 144 c 256
 74 60 124 -10 229 -10 c 256
236 48 m 256
 200 48 182 83 182 130 c 256
 182 232 264 394 418 404 c 257
 408 264 354 48 236 48 c 256
EndSplineSet
EndChar

StartChar: percent
Encoding: 37 37 385
Width: 1000
VWidth: 0
Flags: HW
PickledData: "(dp1
S'org.robofab.postScriptHintData'
p2
(dp3
s."
LayerCount: 2
Fore
SplineSet
229 388 m 256
 162 388 154 439 154 508 c 258
 154 554 l 258
 154 620 159 667 229 667 c 256
 299 667 306 620 306 553 c 258
 306 508 l 258
 306 439 296 388 229 388 c 256
229 331 m 256
 341 331 377 404 377 516 c 258
 377 542 l 257
 376 656 341 723 229 723 c 256
 116 723 84 656 84 542 c 258
 84 516 l 258
 84 405 117 331 229 331 c 256
769 47 m 256
 702 47 693 98 693 167 c 258
 693 214 l 258
 693 280 699 326 769 326 c 256
 839 326 845 280 845 213 c 258
 845 167 l 258
 845 98 836 47 769 47 c 256
769 -9 m 256
 881 -9 916 64 916 176 c 258
 916 202 l 257
 915 316 881 383 769 383 c 256
 656 383 623 316 623 202 c 258
 623 176 l 258
 623 65 657 -9 769 -9 c 256
326 0 m 257
 401 0 l 257
 664 706 l 257
 591 706 l 257
 326 0 l 257
EndSplineSet
EndChar

StartChar: period
Encoding: 46 46 386
Width: 306
VWidth: 0
Flags: HW
PickledData: "(dp1
S'org.robofab.postScriptHintData'
p2
(dp3
s."
LayerCount: 2
Fore
SplineSet
91 0 m 257
 216 0 l 257
 216 118 l 257
 91 118 l 257
 91 0 l 257
EndSplineSet
EndChar

StartChar: periodcentered
Encoding: 493 183 387
Width: 358
VWidth: 0
Flags: HW
PickledData: "(dp1
S'org.robofab.postScriptHintData'
p2
(dp3
s."
AnchorPoint: "mid" 51 349 mark 0
LayerCount: 2
Fore
SplineSet
209 304 m 257
 310 304 l 257
 310 404 l 257
 209 404 l 257
 209 304 l 257
EndSplineSet
EndChar

StartChar: perthousand
Encoding: 494 8240 388
Width: 1409
VWidth: 0
Flags: HW
PickledData: "(dp1
S'org.robofab.postScriptHintData'
p2
(dp3
s."
LayerCount: 2
Fore
SplineSet
248 378 m 256
 181 378 172 429 172 498 c 258
 172 544 l 258
 172 610 178 657 248 657 c 256
 318 657 324 610 324 543 c 258
 324 498 l 258
 324 429 315 378 248 378 c 256
248 321 m 256
 360 321 395 394 395 506 c 258
 395 533 l 257
 394 647 360 713 248 713 c 256
 135 713 102 646 102 532 c 258
 102 506 l 258
 102 395 136 321 248 321 c 256
787 47 m 256
 720 47 711 98 711 167 c 258
 711 214 l 258
 711 280 717 326 787 326 c 256
 857 326 863 280 863 213 c 258
 863 167 l 258
 863 98 854 47 787 47 c 256
787 -9 m 256
 899 -9 934 64 934 176 c 258
 934 202 l 257
 933 316 899 383 787 383 c 256
 674 383 641 316 641 202 c 258
 641 176 l 258
 641 65 675 -9 787 -9 c 256
1167 47 m 256
 1100 47 1091 98 1091 167 c 258
 1091 214 l 258
 1091 280 1097 326 1167 326 c 256
 1237 326 1244 280 1244 213 c 258
 1244 167 l 258
 1244 98 1234 47 1167 47 c 256
1167 -9 m 256
 1279 -9 1314 64 1314 176 c 258
 1314 202 l 257
 1313 316 1279 383 1167 383 c 256
 1054 383 1021 316 1021 202 c 258
 1021 176 l 258
 1021 65 1055 -9 1167 -9 c 256
344 0 m 257
 419 0 l 257
 682 706 l 257
 609 706 l 257
 344 0 l 257
EndSplineSet
EndChar

StartChar: pi
Encoding: 495 960 389
Width: 576
VWidth: 0
Flags: HW
PickledData: "(dp1
S'org.robofab.postScriptHintData'
p2
(dp3
s."
LayerCount: 2
Fore
SplineSet
15 427 m 257
 15 427 68 457 123 457 c 257
 123 0 l 257
 214 0 l 257
 214 457 l 257
 364 457 l 257
 364 130 l 258
 364 15 410 -11 510 -11 c 257
 533 61 l 257
 467 76 456 82 456 163 c 258
 456 457 l 257
 544 457 l 257
 544 518 l 257
 106 518 l 258
 47 518 15 488 15 488 c 257
 15 427 l 257
EndSplineSet
EndChar

StartChar: plus
Encoding: 43 43 390
Width: 500
VWidth: 0
Flags: HW
PickledData: "(dp1
S'org.robofab.postScriptHintData'
p2
(dp3
s."
LayerCount: 2
Fore
SplineSet
213 76 m 257
 287 76 l 257
 287 241 l 257
 421 241 l 257
 421 313 l 257
 287 313 l 257
 287 473 l 257
 213 473 l 257
 213 313 l 257
 79 313 l 257
 79 241 l 257
 213 241 l 257
 213 76 l 257
EndSplineSet
EndChar

StartChar: plusminus
Encoding: 496 177 391
Width: 508
VWidth: 0
Flags: HW
PickledData: "(dp1
S'org.robofab.postScriptHintData'
p2
(dp3
s."
LayerCount: 2
Fore
SplineSet
225 163 m 257
 284 163 l 257
 284 298 l 257
 407 298 l 257
 407 354 l 257
 284 354 l 257
 284 484 l 257
 225 484 l 257
 225 354 l 257
 101 354 l 257
 101 298 l 257
 225 298 l 257
 225 163 l 257
101 0 m 257
 407 0 l 257
 407 59 l 257
 101 59 l 257
 101 0 l 257
EndSplineSet
EndChar

StartChar: product
Encoding: 497 8719 392
Width: 875
VWidth: 0
Flags: HW
PickledData: "(dp1
S'org.robofab.postScriptHintData'
p2
(dp3
s."
LayerCount: 2
Fore
SplineSet
322 156 m 257
 386 156 l 257
 386 318 l 257
 473 318 l 258
 580 318 608 372 608 437 c 258
 608 443 l 257
 606 528 556 563 479 563 c 258
 322 563 l 257
 322 156 l 257
386 362 m 257
 386 519 l 257
 481 519 l 258
 539 519 543 469 543 440 c 258
 543 428 l 258
 543 397 533 362 477 362 c 258
 386 362 l 257
438 40 m 256
 260 40 131 175 131 353 c 256
 131 531 260 665 438 665 c 256
 617 665 745 531 745 353 c 256
 745 175 617 40 438 40 c 256
438 -7 m 256
 641 -7 797 148 797 353 c 256
 797 557 641 711 438 711 c 256
 236 711 78 557 78 353 c 256
 78 148 236 -7 438 -7 c 256
EndSplineSet
EndChar

StartChar: q
Encoding: 113 113 393
Width: 585
VWidth: 0
Flags: HW
PickledData: "(dp1
S'org.robofab.postScriptHintData'
p2
(dp3
s."
LayerCount: 2
Fore
SplineSet
403 -199 m 257
 495 -199 l 257
 495 518 l 257
 403 518 l 257
 403 476 l 257
 388 500 326 527 273 527 c 256
 138 527 72 459 72 355 c 258
 72 153 l 258
 72 53 148 -11 280 -11 c 256
 316 -11 371 -1 403 23 c 257
 403 -199 l 257
286 60 m 256
 219 60 164 77 164 139 c 258
 164 365 l 258
 164 428 215 457 287 457 c 256
 369 457 403 425 403 396 c 258
 403 98 l 257
 398 88 354 60 286 60 c 256
EndSplineSet
EndChar

StartChar: question
Encoding: 63 63 394
Width: 605
VWidth: 0
Flags: HW
PickledData: "(dp1
S'org.robofab.postScriptHintData'
p2
(dp3
s."
LayerCount: 2
Fore
SplineSet
228 210 m 257
 306 210 l 257
 407 317 l 258
 483 397 535 455 535 544 c 256
 535 624 491 717 321 717 c 256
 154 717 87 671 87 523 c 258
 87 507 l 257
 184 507 l 257
 184 533 l 258
 184 598 216 638 321 638 c 256
 408 638 431 597 431 539 c 256
 431 482 403 444 361 388 c 258
 228 210 l 257
215 0 m 257
 314 0 l 257
 314 101 l 257
 215 101 l 257
 215 0 l 257
EndSplineSet
EndChar

StartChar: quotedbl
Encoding: 34 34 396
Width: 434
VWidth: 0
Flags: HW
PickledData: "(dp1
S'org.robofab.postScriptHintData'
p2
(dp3
s."
LayerCount: 2
Fore
SplineSet
107 454 m 257
 162 454 l 257
 186 735 l 257
 86 735 l 257
 107 454 l 257
270 454 m 257
 325 454 l 257
 349 735 l 257
 249 735 l 257
 270 454 l 257
EndSplineSet
EndChar

StartChar: quotedblbase
Encoding: 499 8222 397
Width: 576
VWidth: 0
Flags: HW
PickledData: "(dp1
S'org.robofab.postScriptHintData'
p2
(dp3
s."
LayerCount: 2
Fore
SplineSet
336 -165 m 257
 364 -139 420 -69 420 24 c 258
 420 114 l 257
 295 114 l 257
 295 0 l 257
 364 0 l 257
 364 -64 320 -117 297 -144 c 257
 336 -165 l 257
135 -165 m 257
 163 -139 219 -69 219 24 c 258
 219 114 l 257
 94 114 l 257
 94 0 l 257
 163 0 l 257
 163 -64 119 -117 96 -144 c 257
 135 -165 l 257
EndSplineSet
EndChar

StartChar: quotedblleft
Encoding: 500 8220 398
Width: 576
VWidth: 0
Flags: HW
PickledData: "(dp1
S'org.robofab.postScriptHintData'
p2
(dp3
s."
LayerCount: 2
Fore
SplineSet
240 717 m 257
 212 691 156 620 156 527 c 258
 156 438 l 257
 282 438 l 257
 282 552 l 257
 213 552 l 257
 213 616 257 668 280 695 c 257
 240 717 l 257
441 717 m 257
 413 691 357 620 357 527 c 258
 357 438 l 257
 483 438 l 257
 483 552 l 257
 414 552 l 257
 414 616 458 668 481 695 c 257
 441 717 l 257
EndSplineSet
EndChar

StartChar: quotedblright
Encoding: 501 8221 399
Width: 576
VWidth: 0
Flags: HW
PickledData: "(dp1
S'org.robofab.postScriptHintData'
p2
(dp3
s."
LayerCount: 2
Fore
SplineSet
135 438 m 257
 163 464 219 534 219 627 c 258
 219 717 l 257
 94 717 l 257
 94 603 l 257
 163 603 l 257
 163 539 119 486 96 459 c 257
 135 438 l 257
336 438 m 257
 364 464 420 534 420 627 c 258
 420 717 l 257
 295 717 l 257
 295 603 l 257
 364 603 l 257
 364 539 320 486 297 459 c 257
 336 438 l 257
EndSplineSet
EndChar

StartChar: quoteleft
Encoding: 502 8216 400
Width: 375
VWidth: 0
Flags: HW
PickledData: "(dp1
S'org.robofab.postScriptHintData'
p2
(dp3
s."
LayerCount: 2
Fore
SplineSet
240 717 m 257
 212 691 156 620 156 527 c 258
 156 438 l 257
 282 438 l 257
 282 552 l 257
 213 552 l 257
 213 616 257 668 280 695 c 257
 240 717 l 257
EndSplineSet
EndChar

StartChar: quoteright
Encoding: 503 8217 401
Width: 375
VWidth: 0
Flags: HW
PickledData: "(dp1
S'org.robofab.postScriptHintData'
p2
(dp3
s."
LayerCount: 2
Fore
SplineSet
135 438 m 257
 163 464 219 534 219 627 c 258
 219 717 l 257
 94 717 l 257
 94 603 l 257
 163 603 l 257
 163 539 119 486 96 459 c 257
 135 438 l 257
EndSplineSet
EndChar

StartChar: quotesinglbase
Encoding: 504 8218 402
Width: 375
VWidth: 0
Flags: HW
PickledData: "(dp1
S'org.robofab.postScriptHintData'
p2
(dp3
s."
LayerCount: 2
Fore
SplineSet
135 -165 m 257
 163 -139 219 -69 219 24 c 258
 219 114 l 257
 94 114 l 257
 94 0 l 257
 163 0 l 257
 163 -64 119 -117 96 -144 c 257
 135 -165 l 257
EndSplineSet
EndChar

StartChar: quotesingle
Encoding: 39 39 403
Width: 437
VWidth: 0
Flags: HW
PickledData: "(dp1
S'org.robofab.postScriptHintData'
p2
(dp3
s."
LayerCount: 2
Fore
SplineSet
109 454 m 257
 164 454 l 257
 188 735 l 257
 87 735 l 257
 109 454 l 257
EndSplineSet
EndChar

StartChar: r
Encoding: 114 114 404
Width: 389
VWidth: 0
Flags: HW
PickledData: "(dp1
S'org.robofab.postScriptHintData'
p2
(dp3
s."
AnchorPoint: "bot" 140 0 basechar 0
AnchorPoint: "top" 233 518 basechar 0
LayerCount: 2
Fore
SplineSet
91 0 m 257
 183 0 l 257
 183 353 l 258
 183 405 271 446 359 446 c 257
 362 525 l 257
 294 525 208 502 183 435 c 257
 183 518 l 257
 91 518 l 257
 91 0 l 257
EndSplineSet
EndChar

StartChar: radical
Encoding: 506 8730 406
Width: 609
VWidth: 0
Flags: HW
PickledData: "(dp1
S'org.robofab.postScriptHintData'
p2
(dp3
s."
LayerCount: 2
Fore
SplineSet
48 216 m 257
 106 216 l 257
 218 0 l 257
 305 0 l 257
 604 735 l 257
 538 735 l 257
 266 78 l 257
 175 270 l 257
 48 270 l 257
 48 216 l 257
EndSplineSet
EndChar

StartChar: registered
Encoding: 174 174 410
Width: 871
VWidth: 0
Flags: HW
PickledData: "(dp1
S'org.robofab.postScriptHintData'
p2
(dp3
s."
LayerCount: 2
Fore
SplineSet
291 156 m 257
 355 156 l 257
 355 318 l 257
 481 318 l 257
 569 156 l 257
 632 156 l 257
 542 325 l 257
 587 337 616 372 616 437 c 258
 616 443 l 257
 614 528 565 563 488 563 c 258
 291 563 l 257
 291 156 l 257
355 362 m 257
 355 519 l 257
 490 519 l 258
 548 519 552 469 552 440 c 258
 552 428 l 258
 552 397 541 362 485 362 c 258
 355 362 l 257
437 40 m 256
 259 40 129 175 129 353 c 256
 129 531 259 665 437 665 c 256
 616 665 743 531 743 353 c 256
 743 175 616 40 437 40 c 256
436 -7 m 256
 639 -7 795 148 795 353 c 256
 795 557 639 711 436 711 c 256
 234 711 76 557 76 353 c 256
 76 148 234 -7 436 -7 c 256
EndSplineSet
EndChar

StartChar: ring
Encoding: 510 730 411
Width: 250
VWidth: 0
Flags: HW
PickledData: "(dp1
S'org.robofab.postScriptHintData'
p2
(dp3
s."
AnchorPoint: "top" 125 518 mark 0
LayerCount: 2
Fore
SplineSet
125 602 m 256
 97 602 72 615 72 658 c 256
 72 700 98 712 125 712 c 256
 153 712 178 699 178 657 c 256
 178 615 153 602 125 602 c 256
125 570 m 256
 174 570 220 597 220 657 c 256
 220 717 174 744 125 744 c 256
 76 744 30 717 30 657 c 256
 30 597 76 570 125 570 c 256
EndSplineSet
EndChar

StartChar: s
Encoding: 115 115 413
Width: 479
VWidth: 0
Flags: HW
PickledData: "(dp1
S'org.robofab.postScriptHintData'
p2
(dp3
sS'com.typemytype.robofont.layerData'
p4
(dp5
s."
AnchorPoint: "bot" 251 0 basechar 0
AnchorPoint: "top" 254 518 basechar 0
LayerCount: 2
Fore
SplineSet
256 -11 m 256
 379 -11 426 56 426 138 c 256
 426 219 409 252 322 286 c 258
 201 333 l 258
 165 346 156 358 156 390 c 256
 156 437 172 457 256 457 c 256
 299 457 362 441 392 429 c 257
 413 499 l 257
 375 514 312 527 239 527 c 256
 111 527 71 473 71 386 c 256
 71 322 96 288 172 262 c 257
 295 216 l 258
 344 198 348 177 348 137 c 256
 348 94 326 60 244 60 c 256
 174 60 113 86 90 99 c 257
 67 31 l 257
 90 18 159 -11 256 -11 c 256
EndSplineSet
EndChar

StartChar: section
Encoding: 167 167 421
Width: 489
VWidth: 0
Flags: HW
PickledData: "(dp1
S'org.robofab.postScriptHintData'
p2
(dp3
s."
LayerCount: 2
Fore
SplineSet
70 31 m 257
 94 18 165 -11 265 -11 c 256
 391 -11 439 56 439 138 c 256
 439 183 434 215 413 238 c 257
 431 263 439 294 439 328 c 256
 439 409 422 441 333 475 c 258
 208 523 l 258
 172 537 162 547 162 578 c 256
 162 626 178 646 265 646 c 256
 309 646 374 630 405 618 c 257
 427 688 l 257
 387 703 322 717 247 717 c 256
 115 717 74 663 74 575 c 256
 74 535 84 508 109 487 c 257
 83 462 74 430 74 387 c 256
 74 322 100 290 178 262 c 258
 305 216 l 258
 355 198 359 177 359 137 c 256
 359 94 336 60 252 60 c 256
 180 60 117 86 93 99 c 257
 70 31 l 257
350 279 m 257
 208 333 l 258
 172 347 162 363 162 394 c 256
 162 415 173 451 178 451 c 257
 305 406 l 258
 355 388 359 367 359 327 c 256
 359 311 357 294 350 279 c 257
EndSplineSet
EndChar

StartChar: seven
Encoding: 55 55 423
Width: 610
VWidth: 0
Flags: HW
PickledData: "(dp1
S'org.robofab.postScriptHintData'
p2
(dp3
s."
LayerCount: 2
Fore
SplineSet
180 0 m 257
 283 0 l 257
 522 629 l 257
 522 706 l 257
 92 706 l 257
 92 630 l 257
 424 630 l 257
 180 0 l 257
EndSplineSet
EndChar

StartChar: six
Encoding: 54 54 424
Width: 610
VWidth: 0
Flags: HW
PickledData: "(dp1
S'org.robofab.postScriptHintData'
p2
(dp3
s."
LayerCount: 2
Fore
SplineSet
316 -11 m 256
 451 -11 553 51 553 206 c 256
 553 367 464 429 319 429 c 256
 290 429 253 420 232 411 c 257
 407 706 l 257
 309 706 l 257
 156 438 l 257
 110 355 87 277 87 208 c 256
 87 52 181 -11 316 -11 c 256
317 68 m 256
 229 68 178 97 178 208 c 256
 178 316 229 349 317 349 c 256
 404 349 461 326 461 206 c 256
 461 96 405 68 317 68 c 256
EndSplineSet
EndChar

StartChar: slash
Encoding: 47 47 425
Width: 375
VWidth: 0
Flags: HW
PickledData: "(dp1
S'org.robofab.postScriptHintData'
p2
(dp3
s."
LayerCount: 2
Fore
SplineSet
31 0 m 257
 123 0 l 257
 344 735 l 257
 254 735 l 257
 31 0 l 257
EndSplineSet
EndChar

StartChar: uni00AD
Encoding: 173 173 427
Width: 500
VWidth: 0
Flags: HW
AnchorPoint: "mid" 248 277 mark 0
LayerCount: 2
Fore
SplineSet
84 244 m 257
 406 244 l 257
 406 313 l 257
 84 313 l 257
 84 244 l 257
EndSplineSet
EndChar

StartChar: sterling
Encoding: 163 163 429
Width: 621
VWidth: 0
Flags: HW
PickledData: "(dp1
S'org.robofab.postScriptHintData'
p2
(dp3
s."
LayerCount: 2
Fore
SplineSet
127 0 m 257
 506 0 l 257
 506 79 l 257
 226 79 l 257
 251 326 l 257
 494 326 l 257
 494 395 l 257
 258 395 l 257
 273 539 l 258
 282 622 325 648 376 648 c 256
 425 648 481 624 500 615 c 257
 526 683 l 257
 464 713 410 725 365 725 c 256
 251 725 188 644 179 549 c 258
 164 395 l 257
 81 395 l 257
 81 326 l 257
 158 326 l 257
 127 0 l 257
EndSplineSet
EndChar

StartChar: summation
Encoding: 519 8721 430
Width: 548
VWidth: 0
Flags: HW
PickledData: "(dp1
S'org.robofab.postScriptHintData'
p2
(dp3
s."
LayerCount: 2
Fore
SplineSet
525 0 m 257
 525 79 l 257
 157 79 l 257
 379 360 l 257
 379 394 l 257
 155 628 l 257
 525 628 l 257
 525 706 l 257
 55 706 l 257
 55 634 l 257
 292 372 l 257
 55 76 l 257
 55 0 l 257
 525 0 l 257
EndSplineSet
EndChar

StartChar: t
Encoding: 116 116 431
Width: 406
VWidth: 0
Flags: HW
PickledData: "(dp1
S'org.robofab.postScriptHintData'
p2
(dp3
s."
AnchorPoint: "bot" 221 16 basechar 0
AnchorPoint: "mid" 185 292 basechar 0
AnchorPoint: "top" 218 625 basechar 0
AnchorPoint: "caron.alt" 121 518 basechar 0
LayerCount: 2
Fore
SplineSet
330 -4 m 258
 344 -4 l 257
 354 73 l 257
 343 73 l 258
 256 73 217 86 217 154 c 258
 217 448 l 257
 347 448 l 257
 347 518 l 257
 217 518 l 257
 217 678 l 257
 140 678 l 257
 129 518 l 257
 39 518 l 257
 39 448 l 257
 125 448 l 257
 125 148 l 258
 125 34 188 -4 330 -4 c 258
EndSplineSet
EndChar

StartChar: thorn
Encoding: 523 254 436
Width: 583
VWidth: 0
Flags: HW
PickledData: "(dp1
S'org.robofab.postScriptHintData'
p2
(dp3
s."
LayerCount: 2
Fore
SplineSet
86 -199 m 257
 178 -199 l 257
 178 17 l 257
 203 4 242 -12 300 -12 c 256
 435 -12 510 64 510 168 c 258
 510 356 l 258
 510 456 444 525 312 525 c 256
 259 525 207 507 178 485 c 257
 178 735 l 257
 87 735 l 257
 86 -199 l 257
294 57 m 256
 241 57 201 74 178 87 c 257
 178 402 l 257
 186 415 233 456 298 456 c 256
 365 456 418 424 418 362 c 258
 418 158 l 258
 418 95 366 57 294 57 c 256
EndSplineSet
EndChar

StartChar: three
Encoding: 51 51 437
Width: 610
VWidth: 0
Flags: HW
PickledData: "(dp1
S'org.robofab.postScriptHintData'
p2
(dp3
s."
LayerCount: 2
Fore
SplineSet
332 -11 m 256
 471 -11 550 59 550 194 c 256
 550 313 503 358 422 375 c 257
 504 388 536 440 536 533 c 256
 536 661 452 717 330 717 c 256
 205 717 106 680 106 500 c 257
 200 500 l 257
 200 621 243 638 330 638 c 256
 414 638 444 597 444 531 c 256
 444 451 438 410 287 410 c 257
 287 337 l 257
 433 337 457 304 457 195 c 256
 457 112 421 68 337 68 c 256
 240 68 203 92 195 210 c 257
 102 210 l 257
 119 44 175 -11 332 -11 c 256
EndSplineSet
Substitution2: "'sups' Superscript lookup 10 subtable" uni00B3
EndChar

StartChar: threequarters
Encoding: 524 190 438
Width: 999
VWidth: 0
Flags: HW
PickledData: "(dp1
S'org.robofab.postScriptHintData'
p2
(dp3
s."
LayerCount: 2
Fore
SplineSet
264 319 m 256
 361 319 414 360 414 438 c 256
 414 507 381 532 324 542 c 257
 382 550 404 579 404 633 c 256
 404 707 345 740 260 740 c 256
 172 740 106 721 104 612 c 257
 169 612 l 257
 169 688 199 694 260 694 c 256
 319 694 339 671 339 632 c 256
 339 586 334 562 229 562 c 257
 229 521 l 257
 332 521 348 500 348 438 c 256
 348 390 327 364 267 364 c 256
 199 364 167 378 163 455 c 257
 97 455 l 257
 106 351 154 319 264 319 c 256
808 0 m 257
 863 0 l 257
 863 101 l 257
 934 101 l 257
 934 146 l 257
 863 146 l 257
 863 260 l 257
 808 260 l 257
 808 146 l 257
 670 146 l 257
 840 436 l 257
 771 436 l 257
 596 146 l 257
 596 101 l 257
 808 101 l 257
 808 0 l 257
335 0 m 257
 400 0 l 257
 731 706 l 257
 669 706 l 257
 335 0 l 257
EndSplineSet
Ligature2: "'frac' Diagonal Fractions lookup 11 subtable" three slash four
EndChar

StartChar: uni00B3
Encoding: 525 179 439
Width: 512
VWidth: 0
Flags: HW
PickledData: "(dp1
S'org.robofab.postScriptHintData'
p2
(dp3
s."
LayerCount: 2
Fore
SplineSet
272 325 m 256
 361 325 424 366 424 452 c 256
 424 514 396 546 337 559 c 257
 395 573 415 610 415 657 c 256
 415 734 346 773 272 773 c 256
 185 773 110 748 110 629 c 257
 173 629 l 257
 173 635 l 258
 173 705 209 720 271 720 c 256
 331 720 354 689 354 656 c 256
 354 614 350 583 233 583 c 258
 230 583 l 257
 230 532 l 257
 234 532 l 258
 338 532 362 508 362 448 c 256
 362 403 324 378 274 378 c 256
 214 378 169 389 169 474 c 257
 105 474 l 257
 108 356 173 325 272 325 c 256
EndSplineSet
EndChar

StartChar: tilde
Encoding: 526 732 440
Width: 250
VWidth: 0
Flags: HW
PickledData: "(dp1
S'org.robofab.postScriptHintData'
p2
(dp3
s."
AnchorPoint: "top" 125 518 mark 0
LayerCount: 2
Fore
SplineSet
71 587 m 256
 138 587 153 640 188 640 c 256
 208 640 222 624 222 594 c 257
 270 594 l 257
 270 675 238 706 179 706 c 256
 112 706 97 654 62 654 c 256
 42 654 27 669 27 699 c 257
 -20 699 l 257
 -20 618 12 587 71 587 c 256
EndSplineSet
EndChar

StartChar: trademark
Encoding: 527 8482 441
Width: 899
VWidth: 0
Flags: HW
PickledData: "(dp1
S'org.robofab.postScriptHintData'
p2
(dp3
s."
LayerCount: 2
Fore
SplineSet
413 374 m 257
 474 374 l 257
 474 649 l 257
 561 455 l 257
 640 455 l 257
 724 649 l 257
 724 374 l 257
 786 374 l 257
 786 706 l 257
 690 706 l 257
 599 504 l 257
 509 706 l 257
 413 706 l 257
 413 374 l 257
168 374 m 257
 234 374 l 257
 234 650 l 257
 338 650 l 257
 338 706 l 257
 65 706 l 257
 65 650 l 257
 168 650 l 257
 168 374 l 257
EndSplineSet
EndChar

StartChar: two
Encoding: 50 50 442
Width: 610
VWidth: 0
Flags: HW
PickledData: "(dp1
S'org.robofab.postScriptHintData'
p2
(dp3
s."
LayerCount: 2
Fore
SplineSet
113 0 m 257
 531 0 l 257
 531 76 l 257
 215 76 l 257
 411 284 l 258
 482 359 535 407 535 517 c 256
 535 629 464 717 312 717 c 256
 169 717 80 655 80 500 c 257
 178 500 l 257
 178 615 216 638 319 638 c 256
 406 638 442 606 442 516 c 256
 442 445 413 413 342 336 c 258
 104 77 l 257
 113 0 l 257
EndSplineSet
Substitution2: "'sups' Superscript lookup 10 subtable" uni00B2
EndChar

StartChar: uni00B2
Encoding: 528 178 443
Width: 512
VWidth: 0
Flags: HW
PickledData: "(dp1
S'org.robofab.postScriptHintData'
p2
(dp3
s."
LayerCount: 2
Fore
SplineSet
119 339 m 257
 402 339 l 257
 402 393 l 257
 198 393 l 257
 302 476 l 257
 364 531 402 569 402 644 c 256
 402 725 348 773 257 773 c 256
 165 773 98 731 99 620 c 257
 168 620 l 257
 168 702 201 722 260 722 c 256
 309 722 337 698 337 644 c 256
 337 592 318 569 264 521 c 257
 113 395 l 257
 119 339 l 257
EndSplineSet
EndChar

StartChar: u
Encoding: 117 117 444
Width: 596
VWidth: 0
Flags: HW
PickledData: "(dp1
S'org.robofab.postScriptHintData'
p2
(dp3
s."
AnchorPoint: "ogonek" 467 0 basechar 0
AnchorPoint: "top" 304 518 basechar 0
LayerCount: 2
Fore
SplineSet
263 -11 m 256
 338 -11 388 19 414 65 c 257
 424 0 l 257
 506 0 l 257
 506 518 l 257
 414 518 l 257
 414 151 l 258
 414 108 371 60 281 60 c 256
 217 60 177 90 177 141 c 258
 177 518 l 257
 85 518 l 257
 85 142 l 258
 85 60 136 -11 263 -11 c 256
EndSplineSet
EndChar

StartChar: underscore
Encoding: 95 95 456
Width: 453
VWidth: 0
Flags: HW
PickledData: "(dp1
S'org.robofab.postScriptHintData'
p2
(dp3
s."
LayerCount: 2
Fore
SplineSet
7 -51 m 257
 447 -51 l 257
 447 22 l 257
 7 22 l 257
 7 -51 l 257
EndSplineSet
EndChar

StartChar: uni0307
Encoding: 547 775 472
Width: 201
VWidth: 0
Flags: HW
PickledData: "(dp1
S'org.robofab.postScriptHintData'
p2
(dp3
s."
AnchorPoint: "top" 106 518 mark 0
LayerCount: 2
Fore
SplineSet
54 648 m 257
 148 648 l 257
 148 750 l 257
 54 750 l 257
 54 648 l 257
EndSplineSet
EndChar

StartChar: uni030F
Encoding: 548 783 473
Width: 500
VWidth: 0
Flags: HW
PickledData: "(dp1
S'org.robofab.postScriptHintData'
p2
(dp3
s."
AnchorPoint: "top" 302 518 mark 0
LayerCount: 2
Fore
SplineSet
365 631 m 257
 428 631 l 257
 360 817 l 257
 250 817 l 257
 365 631 l 257
165 631 m 257
 228 631 l 257
 160 817 l 257
 50 817 l 257
 165 631 l 257
EndSplineSet
EndChar

StartChar: uni0311
Encoding: 549 785 474
Width: 250
VWidth: 0
Flags: HW
PickledData: "(dp1
S'org.robofab.postScriptHintData'
p2
(dp3
s."
AnchorPoint: "top" 130 518 mark 0
LayerCount: 2
Fore
SplineSet
15 613 m 257
 76 613 l 257
 76 642 101 657 125 657 c 256
 149 657 174 642 174 613 c 257
 235 613 l 257
 235 669 193 717 125 717 c 256
 57 717 15 669 15 613 c 257
EndSplineSet
EndChar

StartChar: uni0358
Encoding: 552 856 477
Width: 292
VWidth: 0
Flags: HW
PickledData: "(dp1
S'org.robofab.postScriptHintData'
p2
(dp3
s."
AnchorPoint: "top" 141 518 mark 0
LayerCount: 2
Fore
SplineSet
88 648 m 257
 183 648 l 257
 183 750 l 257
 88 750 l 257
 88 648 l 257
EndSplineSet
EndChar

StartChar: v
Encoding: 118 118 482
Width: 539
VWidth: 0
Flags: HW
PickledData: "(dp1
S'org.robofab.postScriptHintData'
p2
(dp3
s."
LayerCount: 2
Fore
SplineSet
232 0 m 257
 325 0 l 257
 508 518 l 257
 418 518 l 257
 279 98 l 257
 124 518 l 257
 31 518 l 257
 232 0 l 257
EndSplineSet
EndChar

StartChar: w
Encoding: 119 119 483
Width: 788
VWidth: 0
Flags: HW
PickledData: "(dp1
S'org.robofab.postScriptHintData'
p2
(dp3
s."
AnchorPoint: "top" 396 518 basechar 0
LayerCount: 2
Fore
SplineSet
174 0 m 257
 261 0 l 257
 394 413 l 257
 526 0 l 257
 611 0 l 257
 763 518 l 257
 678 518 l 257
 567 111 l 257
 437 518 l 257
 349 518 l 257
 224 111 l 257
 109 518 l 257
 25 518 l 257
 174 0 l 257
EndSplineSet
EndChar

StartChar: x
Encoding: 120 120 488
Width: 515
VWidth: 0
Flags: HW
PickledData: "(dp1
S'org.robofab.postScriptHintData'
p2
(dp3
s."
LayerCount: 2
Fore
SplineSet
31 0 m 257
 123 0 l 257
 261 197 l 257
 399 0 l 257
 488 0 l 257
 306 261 l 257
 486 518 l 257
 397 518 l 257
 261 325 l 257
 126 518 l 257
 34 518 l 257
 215 260 l 257
 31 0 l 257
EndSplineSet
EndChar

StartChar: y
Encoding: 121 121 489
Width: 545
VWidth: 0
Flags: HW
PickledData: "(dp1
S'org.robofab.postScriptHintData'
p2
(dp3
s."
AnchorPoint: "top" 286 518 basechar 0
LayerCount: 2
Fore
SplineSet
97 -198 m 257
 249 -198 294 -137 348 22 c 258
 518 518 l 257
 425 518 l 257
 292 105 l 257
 134 518 l 257
 37 518 l 257
 250 2 l 257
 225 -92 175 -126 97 -126 c 257
 97 -198 l 257
EndSplineSet
EndChar

StartChar: yen
Encoding: 557 165 493
Width: 643
VWidth: 0
Flags: HW
PickledData: "(dp1
S'org.robofab.postScriptHintData'
p2
(dp3
s."
LayerCount: 2
Fore
SplineSet
519 273 m 257
 519 346 l 257
 127 346 l 257
 127 273 l 257
 519 273 l 257
519 123 m 257
 519 195 l 257
 127 195 l 257
 127 123 l 257
 519 123 l 257
EndSplineSet
Refer: 164 89 N 1 0 0 1 0 0 2
EndChar

StartChar: z
Encoding: 122 122 497
Width: 464
VWidth: 0
Flags: HW
PickledData: "(dp1
S'org.robofab.postScriptHintData'
p2
(dp3
s."
AnchorPoint: "bot" 253 0 basechar 0
AnchorPoint: "top" 249 518 basechar 0
LayerCount: 2
Fore
SplineSet
66 0 m 257
 415 0 l 257
 415 64 l 257
 163 64 l 257
 411 457 l 257
 411 518 l 257
 75 518 l 257
 75 451 l 257
 311 451 l 257
 66 62 l 257
 66 0 l 257
EndSplineSet
EndChar

StartChar: zero
Encoding: 48 48 501
Width: 610
VWidth: 0
Flags: HW
PickledData: "(dp1
S'org.robofab.postScriptHintData'
p2
(dp3
s."
LayerCount: 2
Fore
SplineSet
310 68 m 256
 170 68 163 177 163 302 c 258
 163 398 l 258
 163 523 171 638 310 638 c 256
 449 638 456 523 456 398 c 258
 456 302 l 258
 456 177 450 68 310 68 c 256
310 -11 m 256
 546 -11 555 164 555 311 c 258
 555 386 l 258
 555 535 547 717 310 717 c 256
 73 717 64 535 64 386 c 258
 64 311 l 258
 64 164 74 -11 310 -11 c 256
EndSplineSet
EndChar

